<svg width="1440" height="3369" viewBox="0 0 1440 3369" fill="none" xmlns="http://www.w3.org/2000/svg">
<g clip-path="url(#clip0_31_5)">
<path d="M1249 726.5C1293.46 726.5 1329.5 690.459 1329.5 646C1329.5 601.541 1293.46 565.5 1249 565.5C1204.54 565.5 1168.5 601.541 1168.5 646C1168.5 690.459 1204.54 726.5 1249 726.5Z" stroke="#20B486" stroke-opacity="0.25"/>
<path d="M1249.5 778.5C1322.4 778.5 1381.5 719.402 1381.5 646.5C1381.5 573.598 1322.4 514.5 1249.5 514.5C1176.6 514.5 1117.5 573.598 1117.5 646.5C1117.5 719.402 1176.6 778.5 1249.5 778.5Z" stroke="#20B486" stroke-opacity="0.25"/>
<path d="M1249 817.5C1343.72 817.5 1420.5 740.717 1420.5 646C1420.5 551.283 1343.72 474.5 1249 474.5C1154.28 474.5 1077.5 551.283 1077.5 646C1077.5 740.717 1154.28 817.5 1249 817.5Z" stroke="#20B486" stroke-opacity="0.25"/>
<path d="M1249 852.5C1363.05 852.5 1455.5 760.047 1455.5 646C1455.5 531.953 1363.05 439.5 1249 439.5C1134.95 439.5 1042.5 531.953 1042.5 646C1042.5 760.047 1134.95 852.5 1249 852.5Z" stroke="#20B486" stroke-opacity="0.25"/>
<path d="M975 2085.5C1019.46 2085.5 1055.5 2049.46 1055.5 2005C1055.5 1960.54 1019.46 1924.5 975 1924.5C930.541 1924.5 894.5 1960.54 894.5 2005C894.5 2049.46 930.541 2085.5 975 2085.5Z" stroke="#20B486" stroke-opacity="0.25"/>
<path d="M975.5 2137.5C1048.4 2137.5 1107.5 2078.4 1107.5 2005.5C1107.5 1932.6 1048.4 1873.5 975.5 1873.5C902.598 1873.5 843.5 1932.6 843.5 2005.5C843.5 2078.4 902.598 2137.5 975.5 2137.5Z" stroke="#20B486" stroke-opacity="0.25"/>
<path d="M975 2176.5C1069.72 2176.5 1146.5 2099.72 1146.5 2005C1146.5 1910.28 1069.72 1833.5 975 1833.5C880.283 1833.5 803.5 1910.28 803.5 2005C803.5 2099.72 880.283 2176.5 975 2176.5Z" stroke="#20B486" stroke-opacity="0.25"/>
<path d="M975 2211.5C1089.05 2211.5 1181.5 2119.05 1181.5 2005C1181.5 1890.95 1089.05 1798.5 975 1798.5C860.953 1798.5 768.5 1890.95 768.5 2005C768.5 2119.05 860.953 2211.5 975 2211.5Z" stroke="#20B486" stroke-opacity="0.25"/>
<path d="M63 1567.5C107.459 1567.5 143.5 1531.46 143.5 1487C143.5 1442.54 107.459 1406.5 63 1406.5C18.5411 1406.5 -17.5 1442.54 -17.5 1487C-17.5 1531.46 18.5411 1567.5 63 1567.5Z" stroke="#20B486" stroke-opacity="0.25"/>
<path d="M63.5 1619.5C136.402 1619.5 195.5 1560.4 195.5 1487.5C195.5 1414.6 136.402 1355.5 63.5 1355.5C-9.40159 1355.5 -68.5 1414.6 -68.5 1487.5C-68.5 1560.4 -9.40159 1619.5 63.5 1619.5Z" stroke="#20B486" stroke-opacity="0.25"/>
<path d="M63 1658.5C157.717 1658.5 234.5 1581.72 234.5 1487C234.5 1392.28 157.717 1315.5 63 1315.5C-31.7168 1315.5 -108.5 1392.28 -108.5 1487C-108.5 1581.72 -31.7168 1658.5 63 1658.5Z" stroke="#20B486" stroke-opacity="0.25"/>
<path d="M63 1693.5C177.047 1693.5 269.5 1601.05 269.5 1487C269.5 1372.95 177.047 1280.5 63 1280.5C-51.0468 1280.5 -143.5 1372.95 -143.5 1487C-143.5 1601.05 -51.0468 1693.5 63 1693.5Z" stroke="#20B486" stroke-opacity="0.25"/>
<path d="M1377 2655.5C1421.46 2655.5 1457.5 2619.46 1457.5 2575C1457.5 2530.54 1421.46 2494.5 1377 2494.5C1332.54 2494.5 1296.5 2530.54 1296.5 2575C1296.5 2619.46 1332.54 2655.5 1377 2655.5Z" stroke="#20B486" stroke-opacity="0.25"/>
<path d="M1377.5 2707.5C1450.4 2707.5 1509.5 2648.4 1509.5 2575.5C1509.5 2502.6 1450.4 2443.5 1377.5 2443.5C1304.6 2443.5 1245.5 2502.6 1245.5 2575.5C1245.5 2648.4 1304.6 2707.5 1377.5 2707.5Z" stroke="#20B486" stroke-opacity="0.25"/>
<path d="M1377 2746.5C1471.72 2746.5 1548.5 2669.72 1548.5 2575C1548.5 2480.28 1471.72 2403.5 1377 2403.5C1282.28 2403.5 1205.5 2480.28 1205.5 2575C1205.5 2669.72 1282.28 2746.5 1377 2746.5Z" stroke="#20B486" stroke-opacity="0.25"/>
<path d="M1377 2781.5C1491.05 2781.5 1583.5 2689.05 1583.5 2575C1583.5 2460.95 1491.05 2368.5 1377 2368.5C1262.95 2368.5 1170.5 2460.95 1170.5 2575C1170.5 2689.05 1262.95 2781.5 1377 2781.5Z" stroke="#20B486" stroke-opacity="0.25"/>
<path d="M93 3242.5C137.459 3242.5 173.5 3206.46 173.5 3162C173.5 3117.54 137.459 3081.5 93 3081.5C48.5411 3081.5 12.5 3117.54 12.5 3162C12.5 3206.46 48.5411 3242.5 93 3242.5Z" stroke="#20B486" stroke-opacity="0.25"/>
<path d="M93.5 3294.5C166.402 3294.5 225.5 3235.4 225.5 3162.5C225.5 3089.6 166.402 3030.5 93.5 3030.5C20.5984 3030.5 -38.5 3089.6 -38.5 3162.5C-38.5 3235.4 20.5984 3294.5 93.5 3294.5Z" stroke="#20B486" stroke-opacity="0.25"/>
<path d="M93 3333.5C187.717 3333.5 264.5 3256.72 264.5 3162C264.5 3067.28 187.717 2990.5 93 2990.5C-1.71684 2990.5 -78.5 3067.28 -78.5 3162C-78.5 3256.72 -1.71684 3333.5 93 3333.5Z" stroke="#20B486" stroke-opacity="0.25"/>
<path d="M93 3368.5C207.047 3368.5 299.5 3276.05 299.5 3162C299.5 3047.95 207.047 2955.5 93 2955.5C-21.0468 2955.5 -113.5 3047.95 -113.5 3162C-113.5 3276.05 -21.0468 3368.5 93 3368.5Z" stroke="#20B486" stroke-opacity="0.25"/>
<path d="M115 2644.5C143.443 2644.5 166.5 2621.44 166.5 2593C166.5 2564.56 143.443 2541.5 115 2541.5C86.5573 2541.5 63.5 2564.56 63.5 2593C63.5 2621.44 86.5573 2644.5 115 2644.5Z" stroke="white" stroke-opacity="0.1"/>
<path d="M115 2677.5C161.668 2677.5 199.5 2639.67 199.5 2593C199.5 2546.33 161.668 2508.5 115 2508.5C68.3319 2508.5 30.5 2546.33 30.5 2593C30.5 2639.67 68.3319 2677.5 115 2677.5Z" stroke="white" stroke-opacity="0.1"/>
<path d="M115 2703.5C176.027 2703.5 225.5 2654.03 225.5 2593C225.5 2531.97 176.027 2482.5 115 2482.5C53.9725 2482.5 4.5 2531.97 4.5 2593C4.5 2654.03 53.9725 2703.5 115 2703.5Z" stroke="white" stroke-opacity="0.1"/>
<path d="M115 2725.5C188.178 2725.5 247.5 2666.18 247.5 2593C247.5 2519.82 188.178 2460.5 115 2460.5C41.8223 2460.5 -17.5 2519.82 -17.5 2593C-17.5 2666.18 41.8223 2725.5 115 2725.5Z" stroke="white" stroke-opacity="0.1"/>
<path d="M1338 3275.5C1366.44 3275.5 1389.5 3252.44 1389.5 3224C1389.5 3195.56 1366.44 3172.5 1338 3172.5C1309.56 3172.5 1286.5 3195.56 1286.5 3224C1286.5 3252.44 1309.56 3275.5 1338 3275.5Z" stroke="white" stroke-opacity="0.1"/>
<path d="M1338 3308.5C1384.67 3308.5 1422.5 3270.67 1422.5 3224C1422.5 3177.33 1384.67 3139.5 1338 3139.5C1291.33 3139.5 1253.5 3177.33 1253.5 3224C1253.5 3270.67 1291.33 3308.5 1338 3308.5Z" stroke="white" stroke-opacity="0.1"/>
<path d="M1338 3334.5C1399.03 3334.5 1448.5 3285.03 1448.5 3224C1448.5 3162.97 1399.03 3113.5 1338 3113.5C1276.97 3113.5 1227.5 3162.97 1227.5 3224C1227.5 3285.03 1276.97 3334.5 1338 3334.5Z" stroke="white" stroke-opacity="0.1"/>
<path d="M1338 3356.5C1411.18 3356.5 1470.5 3297.18 1470.5 3224C1470.5 3150.82 1411.18 3091.5 1338 3091.5C1264.82 3091.5 1205.5 3150.82 1205.5 3224C1205.5 3297.18 1264.82 3356.5 1338 3356.5Z" stroke="white" stroke-opacity="0.1"/>
<path d="M620 1751.5C648.443 1751.5 671.5 1728.44 671.5 1700C671.5 1671.56 648.443 1648.5 620 1648.5C591.557 1648.5 568.5 1671.56 568.5 1700C568.5 1728.44 591.557 1751.5 620 1751.5Z" stroke="white" stroke-opacity="0.1"/>
<path d="M620 1784.5C666.668 1784.5 704.5 1746.67 704.5 1700C704.5 1653.33 666.668 1615.5 620 1615.5C573.332 1615.5 535.5 1653.33 535.5 1700C535.5 1746.67 573.332 1784.5 620 1784.5Z" stroke="white" stroke-opacity="0.1"/>
<path d="M620 1810.5C681.027 1810.5 730.5 1761.03 730.5 1700C730.5 1638.97 681.027 1589.5 620 1589.5C558.973 1589.5 509.5 1638.97 509.5 1700C509.5 1761.03 558.973 1810.5 620 1810.5Z" stroke="white" stroke-opacity="0.1"/>
<path d="M620 1832.5C693.178 1832.5 752.5 1773.18 752.5 1700C752.5 1626.82 693.178 1567.5 620 1567.5C546.822 1567.5 487.5 1626.82 487.5 1700C487.5 1773.18 546.822 1832.5 620 1832.5Z" stroke="white" stroke-opacity="0.1"/>
<path d="M1350 1388.5C1378.44 1388.5 1401.5 1365.44 1401.5 1337C1401.5 1308.56 1378.44 1285.5 1350 1285.5C1321.56 1285.5 1298.5 1308.56 1298.5 1337C1298.5 1365.44 1321.56 1388.5 1350 1388.5Z" stroke="white" stroke-opacity="0.1"/>
<path d="M1350 1421.5C1396.67 1421.5 1434.5 1383.67 1434.5 1337C1434.5 1290.33 1396.67 1252.5 1350 1252.5C1303.33 1252.5 1265.5 1290.33 1265.5 1337C1265.5 1383.67 1303.33 1421.5 1350 1421.5Z" stroke="white" stroke-opacity="0.1"/>
<path d="M1350 1447.5C1411.03 1447.5 1460.5 1398.03 1460.5 1337C1460.5 1275.97 1411.03 1226.5 1350 1226.5C1288.97 1226.5 1239.5 1275.97 1239.5 1337C1239.5 1398.03 1288.97 1447.5 1350 1447.5Z" stroke="white" stroke-opacity="0.1"/>
<path d="M1350 1469.5C1423.18 1469.5 1482.5 1410.18 1482.5 1337C1482.5 1263.82 1423.18 1204.5 1350 1204.5C1276.82 1204.5 1217.5 1263.82 1217.5 1337C1217.5 1410.18 1276.82 1469.5 1350 1469.5Z" stroke="white" stroke-opacity="0.1"/>
<path d="M1350 1388.5C1378.44 1388.5 1401.5 1365.44 1401.5 1337C1401.5 1308.56 1378.44 1285.5 1350 1285.5C1321.56 1285.5 1298.5 1308.56 1298.5 1337C1298.5 1365.44 1321.56 1388.5 1350 1388.5Z" stroke="white" stroke-opacity="0.1"/>
<path d="M1350 1421.5C1396.67 1421.5 1434.5 1383.67 1434.5 1337C1434.5 1290.33 1396.67 1252.5 1350 1252.5C1303.33 1252.5 1265.5 1290.33 1265.5 1337C1265.5 1383.67 1303.33 1421.5 1350 1421.5Z" stroke="white" stroke-opacity="0.1"/>
<path d="M1350 1447.5C1411.03 1447.5 1460.5 1398.03 1460.5 1337C1460.5 1275.97 1411.03 1226.5 1350 1226.5C1288.97 1226.5 1239.5 1275.97 1239.5 1337C1239.5 1398.03 1288.97 1447.5 1350 1447.5Z" stroke="white" stroke-opacity="0.1"/>
<path d="M1350 1469.5C1423.18 1469.5 1482.5 1410.18 1482.5 1337C1482.5 1263.82 1423.18 1204.5 1350 1204.5C1276.82 1204.5 1217.5 1263.82 1217.5 1337C1217.5 1410.18 1276.82 1469.5 1350 1469.5Z" stroke="white" stroke-opacity="0.1"/>
<path d="M142 406.5C186.459 406.5 222.5 370.459 222.5 326C222.5 281.541 186.459 245.5 142 245.5C97.5411 245.5 61.5 281.541 61.5 326C61.5 370.459 97.5411 406.5 142 406.5Z" stroke="#20B486" stroke-opacity="0.25"/>
<path d="M142.5 458.5C215.402 458.5 274.5 399.402 274.5 326.5C274.5 253.598 215.402 194.5 142.5 194.5C69.5984 194.5 10.5 253.598 10.5 326.5C10.5 399.402 69.5984 458.5 142.5 458.5Z" stroke="#20B486" stroke-opacity="0.25"/>
<path d="M142 497.5C236.717 497.5 313.5 420.717 313.5 326C313.5 231.283 236.717 154.5 142 154.5C47.2832 154.5 -29.5 231.283 -29.5 326C-29.5 420.717 47.2832 497.5 142 497.5Z" stroke="#20B486" stroke-opacity="0.25"/>
<path d="M142 532.5C256.047 532.5 348.5 440.047 348.5 326C348.5 211.953 256.047 119.5 142 119.5C27.9532 119.5 -64.5 211.953 -64.5 326C-64.5 440.047 27.9532 532.5 142 532.5Z" stroke="#20B486" stroke-opacity="0.25"/>
<path d="M1385 490C1520.31 490 1630 380.31 1630 245C1630 109.69 1520.31 0 1385 0C1249.69 0 1140 109.69 1140 245C1140 380.31 1249.69 490 1385 490Z" fill="url(#paint0_radial_31_5)" fill-opacity="0.16"/>
<path d="M47 171C44.2386 171 42 168.761 42 166C42 163.239 44.2386 161 47 161C49.7614 161 52 163.239 52 166C52 168.761 49.7614 171 47 171Z" fill="#C1EF00"/>
</g>
<defs>
<radialGradient id="paint0_radial_31_5" cx="0" cy="0" r="1" gradientUnits="userSpaceOnUse" gradientTransform="translate(1385 245) rotate(90) scale(245)">
<stop stop-color="#FBCE9A"/>
<stop offset="1" stop-color="#FBCE9A" stop-opacity="0"/>
</radialGradient>
<clipPath id="clip0_31_5">
<rect width="1440" height="3369" fill="white"/>
</clipPath>
</defs>
</svg>
