<svg width="145" height="36" viewBox="0 0 145 36" fill="none" xmlns="http://www.w3.org/2000/svg">
<circle cx="22.1429" cy="18" r="9.14286" stroke="white" stroke-width="6"/>
<circle cx="32.1429" cy="18" r="9.14286" stroke="#C1EF00" stroke-width="6"/>
<path d="M58.6895 10.4545L61.9424 21.108H62.0631L65.316 10.4545H69.2506L64.343 25H59.6626L54.7549 10.4545H58.6895ZM73.0224 25.1847C72.3264 25.1847 71.7085 25.0687 71.1687 24.8366C70.6337 24.5999 70.2099 24.2448 69.8974 23.7713C69.5897 23.2931 69.4358 22.6941 69.4358 21.9744C69.4358 21.3684 69.5423 20.857 69.7554 20.4403C69.9684 20.0237 70.262 19.6851 70.6361 19.4247C71.0101 19.1643 71.441 18.9678 71.9287 18.8352C72.4164 18.6979 72.9372 18.6056 73.4912 18.5582C74.1114 18.5014 74.611 18.4422 74.9898 18.3807C75.3685 18.3144 75.6432 18.2221 75.8136 18.1037C75.9888 17.9806 76.0764 17.8078 76.0764 17.5852V17.5497C76.0764 17.1851 75.9509 16.9034 75.7 16.7045C75.449 16.5057 75.1105 16.4062 74.6844 16.4062C74.2251 16.4062 73.8558 16.5057 73.5764 16.7045C73.297 16.9034 73.1195 17.178 73.0437 17.5284L69.8406 17.4148C69.9353 16.7519 70.1791 16.16 70.5721 15.6392C70.9699 15.1136 71.5144 14.7017 72.2057 14.4034C72.9017 14.1004 73.7374 13.9489 74.7128 13.9489C75.4088 13.9489 76.0504 14.0317 76.6375 14.1974C77.2246 14.3584 77.736 14.5952 78.1716 14.9077C78.6072 15.2154 78.9434 15.5942 79.1801 16.044C79.4216 16.4938 79.5423 17.0076 79.5423 17.5852V25H76.2753V23.4801H76.19C75.9959 23.8494 75.7473 24.1619 75.4443 24.4176C75.146 24.6733 74.7933 24.8651 74.3861 24.9929C73.9836 25.1207 73.5291 25.1847 73.0224 25.1847ZM74.0949 22.9119C74.4689 22.9119 74.8051 22.8362 75.1034 22.6847C75.4064 22.5331 75.6479 22.3248 75.8278 22.0597C76.0077 21.7898 76.0977 21.4773 76.0977 21.1222V20.0852C75.9983 20.1373 75.8775 20.1847 75.7355 20.2273C75.5982 20.2699 75.4467 20.3101 75.2809 20.348C75.1152 20.3859 74.9448 20.419 74.7696 20.4474C74.5944 20.4759 74.4263 20.5019 74.2653 20.5256C73.9386 20.5777 73.6593 20.6581 73.4273 20.767C73.2 20.8759 73.0248 21.018 72.9017 21.1932C72.7833 21.3636 72.7241 21.5672 72.7241 21.804C72.7241 22.1638 72.852 22.4384 73.1077 22.6278C73.3681 22.8172 73.6971 22.9119 74.0949 22.9119ZM85.5389 10.4545V25H82.0659V10.4545H85.5389ZM91.6225 10.4545V25H88.1495V10.4545H91.6225Z" fill="white"/>
<path d="M100.391 14.0909V16.6477H93.5086V14.0909H100.391ZM94.9504 11.4773H98.4234V21.5696C98.4234 21.7827 98.4566 21.9555 98.5229 22.0881C98.5939 22.2159 98.6957 22.3082 98.8282 22.3651C98.9608 22.4171 99.1194 22.4432 99.3041 22.4432C99.4367 22.4432 99.5764 22.4313 99.7231 22.4077C99.8746 22.3793 99.9883 22.3556 100.064 22.3366L100.59 24.8438C100.424 24.8911 100.19 24.9503 99.8865 25.0213C99.5882 25.0923 99.2307 25.1373 98.814 25.1562C97.9996 25.1941 97.3013 25.0994 96.7189 24.8722C96.1412 24.6402 95.6985 24.2803 95.3907 23.7926C95.0877 23.3049 94.9409 22.6918 94.9504 21.9531V11.4773ZM107.545 25.206C106.404 25.206 105.419 24.9811 104.59 24.5312C103.767 24.0767 103.132 23.4304 102.687 22.5923C102.247 21.7495 102.027 20.7481 102.027 19.5881C102.027 18.4612 102.249 17.4763 102.694 16.6335C103.139 15.786 103.767 15.1278 104.576 14.6591C105.386 14.1856 106.34 13.9489 107.438 13.9489C108.215 13.9489 108.925 14.0696 109.569 14.3111C110.213 14.5526 110.769 14.91 111.238 15.3835C111.707 15.857 112.072 16.4418 112.332 17.1378C112.592 17.8291 112.723 18.6222 112.723 19.517V20.3835H103.241V18.3665H109.491C109.486 17.9972 109.399 17.6681 109.228 17.3793C109.058 17.0904 108.823 16.8655 108.525 16.7045C108.232 16.5388 107.893 16.456 107.509 16.456C107.121 16.456 106.773 16.5436 106.465 16.7188C106.158 16.8892 105.914 17.1236 105.734 17.4219C105.554 17.7154 105.459 18.0492 105.45 18.4233V20.4759C105.45 20.9209 105.537 21.3116 105.713 21.6477C105.888 21.9792 106.136 22.2372 106.458 22.4219C106.78 22.6065 107.164 22.6989 107.609 22.6989C107.917 22.6989 108.196 22.6562 108.447 22.571C108.698 22.4858 108.913 22.3603 109.093 22.1946C109.273 22.0289 109.408 21.8253 109.498 21.5838L112.687 21.6761C112.554 22.3911 112.263 23.0137 111.813 23.544C111.368 24.0696 110.784 24.4792 110.059 24.7727C109.335 25.0616 108.497 25.206 107.545 25.206ZM124.421 17.4219L121.232 17.5071C121.198 17.2798 121.108 17.0786 120.962 16.9034C120.815 16.7235 120.623 16.5838 120.386 16.4844C120.154 16.3802 119.885 16.3281 119.577 16.3281C119.174 16.3281 118.831 16.4086 118.547 16.5696C118.268 16.7306 118.13 16.9484 118.135 17.223C118.13 17.4361 118.215 17.6207 118.391 17.777C118.571 17.9332 118.89 18.0587 119.349 18.1534L121.452 18.5511C122.541 18.7595 123.35 19.1051 123.881 19.5881C124.416 20.071 124.686 20.7102 124.69 21.5057C124.686 22.2538 124.463 22.9048 124.023 23.4588C123.587 24.0128 122.991 24.4437 122.233 24.7514C121.475 25.0545 120.609 25.206 119.634 25.206C118.076 25.206 116.847 24.8864 115.947 24.2472C115.053 23.6032 114.541 22.7415 114.413 21.6619L117.844 21.5767C117.92 21.9744 118.116 22.2775 118.433 22.4858C118.751 22.6941 119.155 22.7983 119.648 22.7983C120.093 22.7983 120.455 22.7154 120.734 22.5497C121.014 22.384 121.156 22.1638 121.161 21.8892C121.156 21.643 121.047 21.4465 120.834 21.2997C120.621 21.1482 120.287 21.0298 119.832 20.9446L117.929 20.5824C116.835 20.3835 116.021 20.0166 115.486 19.4815C114.951 18.9418 114.686 18.2552 114.69 17.4219C114.686 16.6927 114.88 16.0701 115.273 15.554C115.666 15.0331 116.224 14.6354 116.949 14.3608C117.673 14.0862 118.528 13.9489 119.513 13.9489C120.99 13.9489 122.155 14.259 123.007 14.8793C123.859 15.4948 124.331 16.3423 124.421 17.4219ZM132.958 14.0909V16.6477H126.076V14.0909H132.958ZM127.518 11.4773H130.991V21.5696C130.991 21.7827 131.024 21.9555 131.09 22.0881C131.161 22.2159 131.263 22.3082 131.395 22.3651C131.528 22.4171 131.687 22.4432 131.871 22.4432C132.004 22.4432 132.144 22.4313 132.29 22.4077C132.442 22.3793 132.555 22.3556 132.631 22.3366L133.157 24.8438C132.991 24.8911 132.757 24.9503 132.454 25.0213C132.155 25.0923 131.798 25.1373 131.381 25.1562C130.567 25.1941 129.868 25.0994 129.286 24.8722C128.708 24.6402 128.266 24.2803 127.958 23.7926C127.655 23.3049 127.508 22.6918 127.518 21.9531V11.4773Z" fill="#C1EF00"/>
</svg>
