<svg width="52" height="54" viewBox="0 0 52 54" fill="none" xmlns="http://www.w3.org/2000/svg">
<g clip-path="url(#clip0_48_2)">
<path d="M42 0H10C4.47715 0 0 4.47715 0 10V44C0 49.5228 4.47715 54 10 54H42C47.5228 54 52 49.5228 52 44V10C52 4.47715 47.5228 0 42 0Z" fill="#C1EF00"/>
<path d="M24.6846 29.3633C25.9142 29.3633 26.9066 29.3639 27.7139 29.4189C28.5438 29.4756 29.2777 29.595 29.9727 29.8828C31.6432 30.5748 32.9711 31.9017 33.6631 33.5723C33.951 34.2673 34.0703 35.0019 34.127 35.832C34.182 36.6392 34.1817 37.631 34.1816 38.8604V38.9092C34.1816 39.6622 33.5714 40.2724 32.8184 40.2725C32.0653 40.2725 31.4541 39.6623 31.4541 38.9092C31.4541 37.6199 31.4542 36.721 31.4062 36.0176C31.3591 35.3264 31.2708 34.9235 31.1436 34.6162C30.7284 33.6138 29.9311 32.8175 28.9287 32.4023C28.6215 32.2751 28.2191 32.1868 27.5283 32.1396C26.8249 32.0917 25.9259 32.0908 24.6367 32.0908H20.5459C19.2565 32.0908 18.3568 32.0917 17.6533 32.1396C16.9625 32.1868 16.5602 32.2751 16.2529 32.4023C15.2506 32.8175 14.4543 33.6139 14.0391 34.6162C13.9118 34.9236 13.8235 35.3263 13.7764 36.0176C13.7284 36.7211 13.7275 37.6198 13.7275 38.9092C13.7275 39.6623 13.1164 40.2725 12.3633 40.2725C11.6104 40.2723 11 39.6621 11 38.9092V38.8604C11 37.631 10.9996 36.6392 11.0547 35.832C11.1113 35.0019 11.2307 34.2673 11.5186 33.5723C12.2106 31.9017 13.5384 30.5748 15.209 29.8828C15.9039 29.595 16.6378 29.4756 17.4678 29.4189C18.2751 29.3639 19.2674 29.3633 20.4971 29.3633H24.6846ZM34.2246 30.5596C34.4123 29.8302 35.1564 29.3904 35.8857 29.5781C38.826 30.335 40.9999 33.0029 41 36.1816V38.9092C41 39.6621 40.3896 40.2723 39.6367 40.2725C38.8836 40.2725 38.2725 39.6623 38.2725 38.9092V36.1816C38.2724 34.2774 36.9698 32.6739 35.2051 32.2197C34.4761 32.0319 34.0372 31.2886 34.2246 30.5596ZM22.5908 13C26.3564 13 29.4092 16.0528 29.4092 19.8184C29.4091 23.5839 26.3563 26.6367 22.5908 26.6367C18.8253 26.6367 15.7726 23.5838 15.7725 19.8184C15.7725 16.0528 18.8253 13 22.5908 13ZM29.5088 14.248C29.7915 13.5503 30.5863 13.2137 31.2842 13.4961C33.7804 14.5065 35.5459 16.9548 35.5459 19.8184C35.5458 22.6818 33.7803 25.1302 31.2842 26.1406C30.5862 26.423 29.7913 26.0857 29.5088 25.3877C29.2264 24.6897 29.5629 23.895 30.2607 23.6123C31.7624 23.0044 32.8183 21.533 32.8184 19.8184C32.8184 18.1037 31.7625 16.6323 30.2607 16.0244C29.5628 15.7418 29.2262 14.9461 29.5088 14.248ZM22.5908 15.7275C20.3315 15.7276 18.5 17.559 18.5 19.8184C18.5001 22.0776 20.3316 23.9091 22.5908 23.9092C24.8501 23.9092 26.6815 22.0776 26.6816 19.8184C26.6816 17.559 24.8502 15.7275 22.5908 15.7275Z" fill="#141415"/>
</g>
<defs>
<clipPath id="clip0_48_2">
<rect width="52" height="54" fill="white"/>
</clipPath>
</defs>
</svg>
