<svg width="53" height="54" viewBox="0 0 53 54" fill="none" xmlns="http://www.w3.org/2000/svg">
<rect x="0.333984" width="52" height="54" rx="10" fill="#C1EF00"/>
<g clip-path="url(#clip0_901_5498)">
<path d="M25.957 14.035C26.2062 13.9883 26.4618 13.9883 26.7109 14.035C27.0365 14.0961 27.3235 14.2534 27.4316 14.3075L40.5801 20.8817C41.0421 21.1127 41.334 21.5849 41.334 22.1014C41.3339 22.6179 41.042 23.0902 40.5801 23.3212L37.2432 24.9891C37.2432 27.4749 37.2336 29.9614 37.2432 32.4471C37.2446 32.8234 37.2461 33.2961 37.0938 33.7382C36.9619 34.1203 36.7467 34.4689 36.4639 34.7577C36.1367 35.0917 35.7131 35.3016 35.376 35.4686C32.8861 36.7018 30.4052 37.9545 27.9199 39.1971C27.6329 39.3407 27.2563 39.5423 26.8369 39.621C26.5046 39.6833 26.1634 39.6833 25.8311 39.621C25.4117 39.5423 25.0351 39.3407 24.748 39.1971C22.2628 37.9545 19.7819 36.7018 17.292 35.4686C16.9548 35.3016 16.5313 35.0917 16.2041 34.7577C15.9212 34.4689 15.706 34.1203 15.5742 33.7382C15.4218 33.2961 15.4234 32.8234 15.4248 32.4471C15.4342 29.9614 15.4248 27.4749 15.4248 24.9891L12.0879 23.3212C11.626 23.0902 11.3341 22.6179 11.334 22.1014C11.334 21.5849 11.6259 21.1127 12.0879 20.8817L25.2363 14.3075C25.3445 14.2534 25.6315 14.0961 25.957 14.035ZM27.4316 29.8954C27.3234 29.9495 27.0363 30.1068 26.7109 30.1679C26.4618 30.2145 26.2061 30.2145 25.957 30.1679C25.6316 30.1068 25.3446 29.9495 25.2363 29.8954L18.1523 26.3534V32.3436C18.1523 32.9185 18.0904 32.8181 18.6045 33.0751L25.9678 36.7577C26.3756 36.9616 26.2923 36.9616 26.7002 36.7577L34.0635 33.0751C34.5775 32.8181 34.5156 32.9185 34.5156 32.3436V26.3534L27.4316 29.8954ZM15.7471 22.1014C19.276 23.8659 22.8051 25.63 26.334 27.3944C29.8629 25.63 33.392 23.8659 36.9209 22.1014L26.334 16.8075L15.7471 22.1014Z" fill="black"/>
</g>
<defs>
<clipPath id="clip0_901_5498">
<rect width="30" height="30" fill="white" transform="translate(11.334 12)"/>
</clipPath>
</defs>
</svg>
