<svg width="53" height="54" viewBox="0 0 53 54" fill="none" xmlns="http://www.w3.org/2000/svg">
<rect x="0.666016" width="52" height="54" rx="10" fill="#C1EF00"/>
<path d="M14.0685 31.1994C14.8415 31.1994 15.4688 31.8259 15.4689 32.5988C15.4689 33.5721 15.4414 34.5518 15.5207 35.5226C15.5708 36.1361 15.6621 36.4502 15.7736 36.6691C16.042 37.1959 16.4705 37.6244 16.9973 37.8928C17.2162 38.0043 17.5302 38.0956 18.1437 38.1457C19.1146 38.225 20.0943 38.1974 21.0676 38.1974C21.8405 38.1975 22.467 38.8249 22.467 39.5978C22.4668 40.3706 21.8404 40.9972 21.0676 40.9973C20.0178 40.9973 18.9624 41.0213 17.9152 40.9357C17.1286 40.8714 16.405 40.733 15.7258 40.3869C14.6726 39.8502 13.8162 38.9938 13.2795 37.9406C12.9334 37.2614 12.7949 36.5378 12.7306 35.7512C12.6451 34.704 12.6691 33.6486 12.6691 32.5988C12.6692 31.826 13.2957 31.1996 14.0685 31.1994ZM39.2639 31.1994C40.0367 31.1996 40.6632 31.826 40.6633 32.5988C40.6633 33.6486 40.6873 34.704 40.6017 35.7512C40.5375 36.5378 40.399 37.2614 40.0529 37.9406C39.5162 38.9938 38.6598 39.8502 37.6066 40.3869C36.9274 40.733 36.2038 40.8714 35.4172 40.9357C34.37 41.0213 33.3146 40.9973 32.2648 40.9973C31.492 40.9972 30.8656 40.3706 30.8654 39.5978C30.8654 38.8249 31.4919 38.1975 32.2648 38.1974C33.2381 38.1974 34.2178 38.225 35.1887 38.1457C35.8022 38.0956 36.1162 38.0043 36.3351 37.8928C36.8619 37.6244 37.2904 37.1959 37.5588 36.6691C37.6703 36.4502 37.7616 36.1361 37.8117 35.5226C37.891 34.5518 37.8635 33.5721 37.8635 32.5988C37.8636 31.8259 38.4909 31.1994 39.2639 31.1994ZM30.1555 30.4894C30.702 29.9429 31.5883 29.943 32.1349 30.4894C32.6816 31.0361 32.6816 31.9223 32.1349 32.4689C29.0689 35.5348 24.1238 35.5349 21.0578 32.4689C20.5112 31.9223 20.5112 31.0361 21.0578 30.4894C21.6044 29.9428 22.4907 29.9428 23.0373 30.4894C25.0101 32.4622 28.1826 32.4621 30.1555 30.4894ZM27.3664 20.0021C28.1393 20.0023 28.7658 20.6286 28.7658 21.4015V25.7404C28.7658 27.6331 27.1595 29.2393 25.2668 29.2394C24.4938 29.2394 23.8664 28.6131 23.8664 27.84C23.8665 27.067 24.4938 26.4406 25.2668 26.4406C25.6134 26.4404 25.966 26.087 25.966 25.7404V21.4015C25.966 20.6285 26.5934 20.0021 27.3664 20.0021ZM20.3674 20.0021C21.1404 20.0021 21.7668 20.6285 21.7668 21.4015V23.5012C21.7667 24.2741 21.1403 24.9006 20.3674 24.9006C19.5945 24.9005 18.9681 24.274 18.968 23.5012V21.4015C18.968 20.6286 19.5944 20.0022 20.3674 20.0021ZM32.965 20.0021C33.738 20.0022 34.3644 20.6286 34.3644 21.4015V23.5012C34.3643 24.274 33.7379 24.9005 32.965 24.9006C32.1921 24.9006 31.5657 24.2741 31.5656 23.5012V21.4015C31.5656 20.6285 32.192 20.0021 32.965 20.0021ZM21.0676 13.0031C21.8404 13.0032 22.4668 13.6297 22.467 14.4025C22.467 15.1755 21.8405 15.8028 21.0676 15.8029C20.0943 15.8029 19.1146 15.7754 18.1437 15.8547C17.5302 15.9048 17.2162 15.9961 16.9973 16.1076C16.4705 16.376 16.042 16.8045 15.7736 17.3312C15.6621 17.5501 15.5708 17.8642 15.5207 18.4777C15.4414 19.4486 15.4689 20.4283 15.4689 21.4015C15.4688 22.1745 14.8415 22.801 14.0685 22.801C13.2957 22.8008 12.6692 22.1744 12.6691 21.4015C12.6691 20.3518 12.6451 19.2964 12.7306 18.2492C12.7949 17.4625 12.9334 16.739 13.2795 16.0598C13.8162 15.0066 14.6726 14.1502 15.7258 13.6135C16.405 13.2674 17.1286 13.1289 17.9152 13.0646C18.9624 12.9791 20.0178 13.0031 21.0676 13.0031ZM32.2648 13.0031C33.3146 13.0031 34.37 12.9791 35.4172 13.0646C36.2038 13.1289 36.9274 13.2674 37.6066 13.6135C38.6598 14.1502 39.5162 15.0066 40.0529 16.0598C40.399 16.739 40.5375 17.4625 40.6017 18.2492C40.6873 19.2964 40.6633 20.3518 40.6633 21.4015C40.6632 22.1744 40.0367 22.8008 39.2639 22.801C38.4909 22.801 37.8636 22.1745 37.8635 21.4015C37.8635 20.4283 37.891 19.4486 37.8117 18.4777C37.7616 17.8642 37.6703 17.5501 37.5588 17.3312C37.2904 16.8045 36.8619 16.376 36.3351 16.1076C36.1162 15.9961 35.8022 15.9048 35.1887 15.8547C34.2178 15.7754 33.2381 15.8029 32.2648 15.8029C31.4919 15.8028 30.8654 15.1755 30.8654 14.4025C30.8656 13.6297 31.492 13.0032 32.2648 13.0031Z" fill="black"/>
</svg>
