<svg width="277" height="277" viewBox="0 0 277 277" fill="none" xmlns="http://www.w3.org/2000/svg">
<g clip-path="url(#clip0_901_5209)">
<path d="M0 0H277V277H0V0Z" fill="#141415"/>
<path d="M142.13 47.9769C143.262 43.9752 146.89 40.655 150.419 38.7003C153.262 37.1254 156.242 36.4808 159.426 37.3954C161.479 37.9854 163.364 39.2422 165.127 40.4191C165.986 40.0753 167.272 39.4686 168.194 39.8819C168.584 40.0567 168.847 40.354 168.984 40.7546C169.345 41.812 169.171 44.0837 168.646 45.0981C168.344 45.6808 167.852 46.1076 167.217 46.2892C166.198 46.5808 164.624 46.3874 163.712 45.845C163.393 45.6548 163.122 45.3992 163.007 45.0337C162.806 44.3986 163.257 43.7732 163.593 43.2687C163.908 42.7977 164.256 42.3652 164.631 41.9424C162.368 39.6825 159.222 38.1385 155.986 38.1412C152.431 38.1439 148.625 40.6334 146.225 43.0882C144.851 44.4943 144.006 46.0779 143.222 47.8622C144.671 48.0358 146.016 48.2655 146.959 49.5082C147.432 50.1312 147.684 50.8001 147.86 51.5541C147.685 52.3515 147.562 53.2266 146.828 53.7189C146.431 53.9859 145.982 54.0411 145.521 53.9351C144.295 53.6527 143.15 52.5444 142.544 51.4816C142.082 50.6733 142.026 49.8772 141.999 48.9629C139.411 49.944 137.594 51.0525 136.415 53.6464C135.247 56.2184 135.186 59.4291 136.207 62.0603C137.179 64.5641 139.081 65.6256 140.643 67.6095C141.755 68.2701 142.808 71.1118 143.315 72.3001C143.531 72.4565 143.849 72.6074 144.032 72.7962C144.353 73.1265 144.471 73.5647 144.464 74.0149C144.452 74.7674 144.121 75.4799 143.583 76.0028C143.089 76.4835 142.425 76.7965 141.725 76.7413C140.976 76.6821 140.643 76.2306 140.18 75.6974C138.443 76.856 136.806 78.5908 135.389 80.1243C137.272 79.4637 139.164 78.7385 141.192 78.7912C142.877 78.835 144.78 79.402 145.955 80.6542C149.776 84.7253 152.237 91.4686 153.918 96.7648C154.37 98.1896 155.056 99.9936 154.976 101.488C154.949 101.982 154.676 102.347 154.309 102.658C152.533 104.164 149.254 104.007 147.089 103.853C147.46 106.411 148.078 108.5 149.557 110.632C155.513 111.357 161.155 112.585 166.597 115.179C177.439 120.347 184.158 131.146 187.982 142.16C188.807 144.534 189.53 147.112 189.496 149.647C189.423 155.115 185.115 161.683 182.062 166.117C181.304 167.218 180.274 168.155 179.585 169.291C179.012 170.235 178.943 171.416 178.513 172.423C177.967 173.702 177.104 174.841 176.498 176.096L176.431 176.238C184.25 176.132 192.084 175.759 199.901 175.521C202.459 175.443 208.2 174.937 210.366 175.507C211.515 175.809 212.519 176.493 213.077 177.561C213.417 178.21 213.396 179.009 213.355 179.721C213.248 181.55 212.776 183.47 212.46 185.277C212 187.906 211.661 190.707 210.9 193.263C212.933 193.283 214.964 193.255 216.996 193.179C218.343 193.124 219.749 192.979 221.092 193.042C221.625 193.067 222.266 193.128 222.73 193.416C223.534 193.916 223.898 195.041 224.08 195.921C224.323 197.093 224.08 198.162 223.434 199.149C224.551 199.576 225.568 200.159 226.074 201.301C226.399 202.035 226.551 203.024 226.243 203.788C226.09 204.165 225.882 204.367 225.508 204.514C225.244 204.618 224.983 204.731 224.721 204.839C224.56 208.444 224.175 212.058 223.864 215.653C223.569 219.072 223.351 222.547 222.828 225.939C224.552 226.065 226.836 226.27 228.38 227.12C228.785 227.343 229.279 227.735 229.346 228.227C229.376 228.442 229.351 228.658 229.225 228.835C228.693 229.581 226.884 230.021 226.014 230.246C223.025 231.021 219.921 231.39 216.863 231.777C211.941 232.412 207.006 232.923 202.058 233.311C190.688 234.266 179.301 234.937 167.898 235.325C156.494 235.713 145.088 235.817 133.679 235.637C131.588 235.602 129.487 235.549 127.397 235.607C126.017 235.645 124.566 235.875 123.193 235.766C121.176 235.608 117.575 234.142 115.411 233.513C114.121 233.138 112.791 232.918 111.503 232.549C111.129 232.443 110.75 232.292 110.421 232.083C109.53 231.517 109.405 230.529 109.225 229.57C109.127 229.04 108.981 228.229 109.346 227.779C109.824 227.187 137.478 223.689 140.251 223.48C140.41 218.817 141.165 214.167 141.375 209.501C137.079 209.497 129.509 210.708 125.758 209.909C123.205 209.364 121.677 208.104 120.281 205.94C118.057 206.176 115.879 206.719 113.672 207.067C110.556 207.558 107.229 207.893 104.077 208.014C98.8315 208.215 93.332 207.697 89.3291 203.932C83.8748 198.801 80.4234 185.865 79.2616 178.513C78.8014 175.601 78.584 172.637 78.3378 169.7C77.9275 164.889 77.6424 160.071 77.4824 155.245C77.4297 155.238 77.3772 155.231 77.3245 155.225C72.1277 154.662 63.4945 155.165 59.2629 158.56C58.8753 158.871 58.1452 159.596 57.6764 159.664C57.4638 159.408 57.3464 159.177 57.232 158.863C56.758 157.563 56.4496 156.161 56.0839 154.826C55.491 152.66 54.8677 150.497 54.3916 148.302C53.044 142.089 52.2103 135.679 51.2297 129.394C51.046 128.218 50.0335 125.894 50.1758 124.906C50.2017 124.725 50.2117 124.725 50.2783 124.585C51.5021 123.795 58.7065 125.091 60.4348 125.297C60.1286 124.192 58.7931 121.27 58.8252 120.329C58.8358 120.02 58.9034 119.981 59.1106 119.778C60.2111 119.535 61.7662 120.502 62.7452 120.961C62.7825 119.337 62.5261 117.732 62.5263 116.112C62.5266 115.686 62.535 115.41 62.8374 115.099C63.9836 114.924 66.1333 116.532 67.346 116.901L67.5226 116.953C67.8948 115.645 69.0261 111.263 69.9978 110.674C70.1571 110.577 70.2972 110.644 70.4693 110.671C71.5367 111.317 79.6349 126.248 80.5465 128.119C79.6933 121.593 81.4992 114.768 84.4107 108.93C89.9404 97.8409 100.803 87.6558 112.665 83.7072C118.306 81.8293 124.615 80.6913 130.174 83.4599C130.38 83.8594 130.761 84.7916 131.158 84.9512C131.457 84.5325 131.37 83.8421 131.512 83.3325C131.735 83.2987 131.955 83.2684 132.18 83.2489L132.369 83.234C132.834 82.7652 133.114 82.0284 133.4 81.4362C134.464 79.2416 137.85 76.5533 139.689 74.9262C139.806 74.5069 139.933 74.0863 140.129 73.6965C140.608 72.7451 141.518 72.48 142.447 72.1429C141.367 69.5804 139.808 68.0426 138.064 65.9656C135.857 63.5676 134.433 60.7283 134.553 57.4176C134.65 54.7596 135.553 52.2314 137.529 50.3979C138.844 49.1785 140.412 48.4402 142.13 47.9769Z" fill="white"/>
<path d="M115.965 83.8647C116.411 83.8537 116.758 84.0936 117.119 84.3506C119.756 86.2293 120.644 89.332 121.112 92.3536C118.918 94.4738 116.447 96.3203 114.2 98.3913C109.784 102.461 106.091 107.007 102.652 111.923C101.362 113.773 100.16 115.678 99.049 117.64C98.267 119.029 97.5718 120.53 96.6607 121.835C95.5046 123.49 92.7995 125.108 92.3607 125.918C92.348 126.293 92.3534 126.335 92.5455 126.657C92.9494 126.814 93.1598 126.835 93.5721 126.685C96.6017 125.586 98.498 122.615 99.764 119.852C105.472 120.713 113.613 117.694 119.232 116.219C124.499 114.832 129.776 113.488 135.065 112.186C133.967 114.961 133.011 118.182 133.968 121.144C134.506 122.809 135.61 124.068 137.172 124.85C139.193 125.862 141.488 125.868 143.606 125.173C146.406 124.254 148.819 122.054 150.134 119.431C151.381 116.945 151.557 114.246 150.684 111.619C162.217 113.545 171.16 117.173 178.545 126.706C182.384 131.662 189.272 144.591 188.442 150.677C187.419 158.178 177.022 171.704 170.922 176.328C166.758 176.516 162.523 176.632 158.355 176.559C159.775 173.019 161.728 169.477 163.533 166.121C166.304 161.149 170.788 153.092 175.109 149.504C176.282 148.53 176.928 148.725 178.335 148.833C178.76 148.866 179.228 148.838 179.559 148.543C179.536 148.285 179.536 148.227 179.338 148.037C178.738 147.463 177.87 147.171 177.049 147.239C175.114 147.399 173.697 148.903 172.481 150.259C171.03 148.13 169.493 146.053 168.035 143.925C166.49 141.671 165.023 139.36 163.426 137.143C163.731 135.601 164.19 134.076 164.438 132.524C164.521 132.003 164.621 131.476 164.298 131.032L163.984 131.07C163.753 131.252 163.634 131.437 163.546 131.719C163.38 132.253 163.367 132.84 163.246 133.387L162.267 137.798C160.806 144.69 159.734 151.66 158.335 158.562C155.246 158.512 152.152 158.603 149.061 158.577C148.496 156.239 148.225 153.798 147.856 151.421C147.362 148.421 146.833 145.427 146.269 142.439C142.853 142.34 139.302 142.757 135.874 142.88C128.164 143.132 120.455 143.428 112.748 143.767C113.254 139.632 114.543 136.018 116.427 132.338C116.927 131.363 118.987 129.378 119.057 128.54C119.074 128.337 119.024 128.378 118.846 128.217C118.562 128.191 118.446 128.175 118.184 128.313C116.158 129.378 114.002 134.098 113.256 136.243C112.541 136.507 111.824 136.773 111.098 137.005C105.681 138.735 92.0028 139.186 86.8329 136.481C84.7597 135.396 83.6179 133.532 82.9682 131.359C80.5238 123.181 82.2659 115.079 86.2518 107.708C86.4468 107.35 86.6461 106.995 86.8497 106.642C87.0535 106.289 87.2615 105.939 87.4737 105.591C87.6862 105.243 87.9028 104.898 88.1235 104.556C88.3444 104.213 88.5696 103.874 88.799 103.537C89.0282 103.2 89.2615 102.866 89.499 102.535C89.7365 102.205 89.9782 101.877 90.224 101.551C90.4696 101.226 90.7192 100.904 90.9727 100.586C91.2263 100.267 91.4838 99.9511 91.7453 99.6386C92.0068 99.3261 92.2721 99.0169 92.5412 98.711C92.8102 98.4052 93.0831 98.1027 93.3597 97.8035C93.6362 97.5043 93.9163 97.2086 94.2002 96.9165C94.484 96.6242 94.7715 96.3354 95.0626 96.0503C95.3536 95.7652 95.6481 95.4837 95.946 95.2058C96.244 94.9281 96.5453 94.6539 96.8501 94.3834C97.1548 94.1131 97.463 93.8466 97.7744 93.5838C98.0857 93.3211 98.4002 93.0622 98.7179 92.8072C99.0357 92.5522 99.3566 92.3012 99.6807 92.0541C100.005 91.807 100.332 91.564 100.662 91.3251C100.992 91.0861 101.324 90.8513 101.66 90.6207C101.996 90.39 102.335 90.1635 102.676 89.9412C103.017 89.7188 103.361 89.5007 103.708 89.2868C104.055 89.0729 104.404 88.8635 104.756 88.6584C105.108 88.4532 105.463 88.2524 105.82 88.056C106.177 87.8594 106.536 87.6674 106.898 87.4798C107.259 87.2924 107.623 87.1095 107.99 86.931C108.356 86.7524 108.724 86.5784 109.095 86.4089C109.465 86.2395 109.838 86.0747 110.212 85.9144C110.587 85.7542 110.963 85.5987 111.342 85.4478C111.72 85.297 112.1 85.1508 112.482 85.0093C112.865 84.8679 113.248 84.7312 113.634 84.5992C114.019 84.4672 114.406 84.3399 114.795 84.2175C115.183 84.095 115.573 83.9775 115.965 83.8647Z" fill="#141415"/>
<path d="M179.241 182.52C182.357 182.451 205.808 182.156 207.074 182.669C207.251 182.741 207.461 182.812 207.514 183.013C207.671 183.61 205.601 193.198 205.303 193.681C205.017 193.747 204.654 193.796 204.389 193.917C204.322 193.948 204.136 194.065 204.081 194.146C203.765 194.607 202.95 198.999 202.756 199.85C202.159 200.016 201.605 200.199 201.103 200.575C200.326 201.158 199.666 202.121 199.57 203.104C199.51 203.718 199.661 204.277 200.078 204.739C200.728 205.456 201.557 205.508 202.456 205.578C202.419 209.541 202.947 213.557 203.185 217.516C200.324 217.723 197.406 217.689 194.537 217.775L178.138 218.33C173.444 218.684 168.672 218.69 163.963 218.886C159.571 219.069 155.059 219.49 150.668 219.325C149.499 219.28 148.276 219.18 147.183 218.737C147.081 218.618 147.02 218.515 146.992 218.358C146.681 216.613 149.133 200.998 149.515 198.095C150.067 193.902 150.396 189.608 151.101 185.443C151.202 184.848 151.373 183.78 151.748 183.312C152.219 182.724 174.482 182.621 177.535 182.558L179.241 182.52Z" fill="#141415"/>
<path d="M142.629 143.697C143.458 143.628 144.292 143.649 145.124 143.652C146.061 147.873 146.534 152.254 147.237 156.523C148.09 161.705 149.197 166.904 149.641 172.139C140.895 172.549 132.114 172.582 123.361 172.764C118.109 172.873 112.809 173.248 107.562 173.2C106.602 171.565 105.904 169.66 105.149 167.92C103.601 164.309 102.073 160.69 100.564 157.063L97.8976 150.612C97.3227 149.254 96.6486 147.911 96.2034 146.503C94.9563 148.07 88.8055 156.302 87.8477 156.915C88.0838 155.03 94.7862 147.758 96.3592 145.913C98.4827 145.654 100.643 145.611 102.779 145.488C106.019 145.301 109.252 145.099 112.496 144.957C122.536 144.517 132.593 144.217 142.629 143.697Z" fill="#141415"/>
<path d="M123.876 156.395C124.865 156.376 125.801 156.557 126.661 157.06C127.824 157.741 128.656 158.904 128.995 160.202C129.29 161.329 129.172 162.536 128.527 163.523C127.699 164.791 126.566 165.119 125.176 165.413C123.849 165.46 122.57 165.373 121.447 164.587C120.499 163.925 119.891 162.898 119.697 161.765C119.483 160.515 119.726 159.16 120.493 158.135C121.349 156.991 122.517 156.571 123.876 156.395Z" fill="white"/>
<path d="M124.272 157.471C125.075 157.391 125.831 157.745 126.47 158.207C127.288 158.801 127.848 159.865 127.98 160.856C128.1 161.755 127.867 162.664 127.276 163.359C126.502 164.272 125.53 164.447 124.408 164.569C123.628 164.481 122.923 164.268 122.242 163.868C121.449 163.401 120.769 162.656 120.577 161.735C120.385 160.814 120.689 159.833 121.238 159.088C122.008 158.045 123.029 157.638 124.272 157.471Z" fill="#141415"/>
<path d="M206.174 176.566C207.29 176.524 208.505 176.409 209.611 176.594C210.464 176.737 211.403 177.159 211.877 177.922C212.203 178.447 212.192 179.329 212.157 179.923C212.046 181.799 211.585 183.752 211.255 185.601C210.794 188.182 210.387 190.782 209.853 193.348L206.411 193.56C207.004 190.496 208.495 185.832 208.668 182.972C208.693 182.561 208.725 182.006 208.373 181.719C207.678 181.151 206.155 181.295 205.297 181.288C193.043 181.244 180.79 181.326 168.537 181.532C163.656 181.622 157.26 181.316 152.548 181.993C151.944 182.08 151.185 182.306 150.76 182.773C150.385 183.184 150.259 183.903 150.162 184.436C149.098 190.345 148.637 196.43 147.833 202.386C147.377 205.593 146.937 208.802 146.513 212.014C146.256 213.939 145.886 215.95 145.907 217.895C145.913 218.423 145.909 219.056 146.32 219.438C146.891 219.97 147.779 220.088 148.527 220.161C153.667 220.664 159.077 220.169 164.237 220.009C173.767 219.761 183.294 219.422 192.817 218.99C196.339 218.975 199.868 218.695 203.388 218.777C203.636 220.152 203.676 221.609 203.822 223.002C190.876 223.828 177.922 224.484 164.959 224.971C160.201 225.196 155.442 225.369 150.681 225.488C148.554 225.539 146.366 225.689 144.244 225.595C143.505 225.563 142.367 225.512 141.774 225.062C141.515 224.323 141.5 223.419 141.516 222.639C141.567 220.259 141.947 217.801 142.139 215.42C142.69 208.369 143.412 201.335 144.306 194.319C144.954 189.108 145.336 183.561 146.615 178.477C149.357 177.773 152.519 177.896 155.34 177.798C160.794 177.614 166.248 177.503 171.705 177.467C175.928 177.405 180.144 177.184 184.366 177.083C191.634 176.91 198.909 176.819 206.174 176.566Z" fill="#141415"/>
<path d="M51.2891 125.341C53.33 125.492 55.3597 125.815 57.3871 126.087C64.3424 127.02 69.4604 127.992 75.7178 131.566C77.4748 132.569 79.3843 133.797 80.8372 135.219C81.4691 137.441 81.7509 139.845 82.1086 142.126C82.7718 146.36 83.3689 150.515 83.7276 154.788L80.2199 154.413C74.4012 153.753 68.1014 153.623 62.5216 155.606C61.0349 156.135 59.6491 156.861 58.2506 157.583C56.8099 152.381 55.3737 147.111 54.3896 141.799C53.3682 136.286 52.7815 130.763 51.2891 125.341Z" fill="#141415"/>
<path d="M57.3242 133.91C59.9985 134.01 62.7033 134.33 65.3743 134.536C67.4739 134.697 75.9362 135.279 77.0299 136.809C77.1597 136.991 77.054 137.173 77.0131 137.374C75.1361 137.275 73.1711 136.373 71.2754 136.085C67.603 135.526 63.8256 135.473 60.1286 135.076C59.3089 134.988 58.4652 134.924 57.6721 134.697C57.3637 134.398 57.3891 134.341 57.3242 133.91Z" fill="white"/>
<path d="M58.5545 139.158C61.5246 139.436 74.5731 140.364 76.3431 141.557C76.418 141.9 76.4001 141.898 76.2362 142.213C73.1869 141.658 70.1176 141.256 67.0284 141.007C64.5316 140.794 61.9875 140.709 59.5075 140.36C59.0866 140.301 58.67 140.269 58.3424 139.972C58.3024 139.59 58.3795 139.507 58.5545 139.158Z" fill="white"/>
<path d="M61.4359 145.035C63.4837 145.014 74.4877 145.317 75.4761 146.18C75.6368 146.32 75.5767 146.495 75.5805 146.69C72.4498 146.294 69.3074 146.042 66.1533 145.937C65.1121 145.908 62.0327 146.154 61.2966 145.812C61.2558 145.452 61.2944 145.373 61.4359 145.035Z" fill="white"/>
<path d="M67.1651 150.054C69.3335 149.887 73.4368 149.853 75.6399 149.986C76.0781 150.013 76.6326 150.09 76.9348 150.436C76.3445 150.951 72.7652 150.684 71.8114 150.679C69.8226 150.684 67.836 150.828 65.8542 150.98C64.984 151.047 63.9388 151.242 63.0772 151.181C62.7069 151.155 62.6279 151.002 62.3828 150.75L62.4142 150.606C63.1551 149.96 66.1004 150.105 67.1651 150.054Z" fill="white"/>
<path d="M127.445 89.6747C128.261 89.672 129.14 90.9699 129.829 91.4644C129.82 91.7378 129.813 92.0112 129.807 92.2845C129.737 95.865 129.716 100.552 132.442 103.269C134.009 104.831 135.95 105.198 138.068 105.231C138.139 107.466 137.439 108.908 136.382 110.808C133.353 111.44 130.349 112.304 127.349 113.074C121.649 114.495 115.968 115.989 110.306 117.553C106.873 118.502 103.877 118.878 100.328 118.498C100.646 117.769 101.007 117.063 101.377 116.36C105.625 108.299 111.701 101.923 118.417 95.8988C121.67 92.9808 123.102 91.0237 127.445 89.6747Z" fill="#141415"/>
<path d="M133.711 82.6913C136.45 84.2048 142.745 88.7737 144.798 90.922C144.861 91.1752 144.91 91.3492 145.064 91.5618C146.345 91.3413 147.587 91.1387 148.887 91.0516C149.383 91.6865 149.778 92.231 149.683 93.0745C149.602 93.7902 149.254 94.5044 148.68 94.951C148.369 95.1928 148.118 95.2529 147.727 95.2199C147.43 95.0538 147.312 94.9174 147.125 94.6345L147.202 94.476C147.581 94.3648 147.9 94.2955 148.293 94.266C148.102 94.5027 147.893 94.6534 147.654 94.8365L147.765 94.9675C148.116 94.9707 148.073 94.9399 148.333 94.7408C148.484 94.3472 148.488 94.341 148.365 93.9385C148.083 93.7237 147.956 93.613 147.575 93.636C147.235 93.6563 146.86 93.8305 146.637 94.0859C146.075 94.7297 146.747 95.5353 146.798 96.2245C146.85 96.9338 146.456 98.0204 146.352 98.7532C146.179 99.9686 146.149 101.2 146.188 102.426C146.281 105.39 146.832 109.499 149.111 111.632C149.123 112.092 149.114 112.552 149.086 113.012C148.896 115.857 147.539 118.11 145.438 119.958C144.137 120.865 142.645 121.604 141.022 121.617C139.735 121.627 138.185 121.041 137.287 120.108C135.393 118.139 136.331 114.332 137.364 112.124C138.152 110.44 139.266 108.945 139.823 107.15C140.035 106.465 140.034 105.726 140.056 105.014C141.012 104.641 142.446 104.218 143.139 103.434C143.317 103.231 143.273 103.329 143.248 103.052C142.807 102.883 141.839 103.393 141.361 103.547C139.253 104.223 136.496 104.602 134.463 103.509C132.783 102.605 131.881 100.72 131.355 98.964C129.731 93.5332 131.059 87.5372 133.711 82.6913Z" fill="#141415"/>
<path d="M139.553 91.7677C139.346 92.0366 139.128 92.3106 138.949 92.5997C138.357 93.5617 138.046 94.8233 138.362 95.9313C138.737 97.2471 139.75 97.8403 140.877 98.4408L140.857 98.704L140.593 98.8996C140.233 98.9532 139.953 98.9348 139.599 98.8433C138.836 98.6464 138.216 98.0505 137.858 97.3623C137.257 96.204 137.241 94.7944 137.632 93.5682C137.881 92.7834 138.619 91.1931 139.472 90.8945C139.839 90.766 139.928 90.8052 140.263 90.9475C140.541 91.268 140.598 91.5672 140.693 91.9668C140.749 91.9868 140.804 92.0082 140.86 92.0268C141.058 92.0931 141.234 92.1255 141.439 92.1534C141.631 92.4813 141.639 92.5078 141.61 92.8862C141.39 93.2203 141.376 93.2931 141.01 93.4364L140.681 93.3474C140.192 92.8459 139.885 92.3766 139.553 91.7677Z" fill="white"/>
<path d="M134.464 86.874C134.689 86.9054 134.904 86.9249 135.101 87.0482C135.474 87.2814 135.737 87.6836 135.819 88.1138C136.004 89.0906 135.54 90.023 135.007 90.801C134.787 90.9287 134.631 90.9646 134.38 90.9966C134.054 90.8064 133.937 90.7196 133.828 90.3482C133.504 89.2439 133.927 87.8303 134.464 86.874Z" fill="white"/>
<path d="M134.191 91.9297C134.702 92.4956 135.107 93.3785 135.213 94.1346C135.319 94.8934 135.213 95.3072 134.763 95.9186C134.632 95.8366 134.586 95.8128 134.455 95.7076C133.925 95.2843 133.64 94.5347 133.588 93.8706C133.526 93.0661 133.663 92.5316 134.191 91.9297Z" fill="white"/>
<path d="M216.141 204.839C218.624 204.741 221.119 204.757 223.604 204.724C223.468 209.036 222.878 213.407 222.494 217.705C222.294 219.939 222.223 223.732 221.67 225.792C221.496 226.438 221.029 227.021 220.568 227.491C218.512 229.586 213.887 229.246 211.121 229.254C209.569 229.176 208.111 228.737 206.982 227.62C206.316 226.96 205.936 226.176 205.668 225.288C205.142 223.542 205.01 221.643 204.793 219.836C204.21 215.036 203.843 210.22 203.689 205.387C207.834 205.056 211.986 204.944 216.141 204.839Z" fill="#141415"/>
<path d="M202.267 224.33C202.869 224.276 203.477 224.268 204.081 224.244C204.273 224.957 204.415 225.691 204.575 226.412C202.226 226.883 199.621 226.803 197.23 226.92L186.42 227.539C174.446 228.279 162.481 229.153 150.526 230.161C145.145 230.573 139.769 231.044 134.398 231.573C131.791 231.841 129.148 232.064 126.564 232.499C125.45 232.687 124.235 232.905 123.24 233.459C119.763 230.764 115.195 230.209 111.17 228.745C111.632 228.259 137.152 225.011 139.982 224.712C140.031 224.774 140.081 224.836 140.129 224.9C140.933 225.948 142.011 226.765 142.958 227.685C142.679 227.946 142.33 228.233 142.123 228.555C141.97 228.792 141.95 228.827 142.007 229.108C142.15 229.197 142.17 229.221 142.358 229.27C142.825 229.392 143.713 229.333 144.129 229.077C144.315 228.963 144.296 228.863 144.354 228.671C144.185 227.993 143.666 227.396 143.271 226.828C152.4 226.511 161.534 226.4 170.666 226.047C181.195 225.641 191.749 224.973 202.267 224.33Z" fill="#141415"/>
<path d="M132.579 227.146C132.85 227.083 132.975 227.059 133.237 227.163C133.565 227.631 134.122 228.274 134.245 228.835C134.322 229.191 134.302 229.499 134.08 229.803C133.318 230.848 130.386 230.844 129.172 230.967L129.012 228.667C128.115 228.721 127.218 228.807 126.323 228.877L127.453 229.814C127.775 230.233 128.071 230.684 128.016 231.229L127.733 231.313C126.661 230.97 125.502 230.026 124.802 229.15C124.555 228.841 124.443 228.617 124.495 228.224C124.872 227.874 131.632 227.265 132.579 227.146Z" fill="white"/>
<path d="M132.1 228.23L132.332 228.219C132.725 228.497 132.894 229.055 133.085 229.487C132.389 229.509 131.731 229.586 131.045 229.694C130.825 229.727 130.609 229.745 130.387 229.762L130.219 229.531C130.171 229.13 130.142 228.957 130.337 228.584C130.784 228.253 131.555 228.282 132.1 228.23Z" fill="#141415"/>
<path d="M139.551 226.199L139.717 226.299C139.949 227.058 140.622 227.606 140.83 228.34C140.933 228.702 140.852 228.837 140.699 229.15C139.742 229.873 137.552 229.774 136.368 229.924L136.074 229.847C135.727 229.292 135.429 228.692 135.164 228.093C134.976 227.667 134.999 227.454 135.162 227.028C136.096 226.214 138.308 226.317 139.551 226.199Z" fill="white"/>
<path d="M138.725 227.419L139.245 227.386L139.447 227.566C139.511 227.955 139.548 227.999 139.369 228.342C139.087 228.51 138.918 228.564 138.589 228.588C138.092 228.623 137.615 228.703 137.124 228.786C136.705 228.66 136.347 228.117 136.049 227.783C136.939 227.648 137.831 227.526 138.725 227.419Z" fill="#141415"/>
<path d="M140.069 173.865C144.361 173.816 148.652 173.793 152.944 173.797C152.264 174.622 151.563 175.415 150.836 176.198C149.463 176.4 147.768 176.159 146.494 176.697C145.738 177.017 145.494 177.506 145.181 178.233C135.324 178.238 125.473 178.676 115.622 178.674C113.713 178.681 104.368 179.022 103.167 178.576C102.578 177.534 102.837 175.791 102.968 174.632C104.612 174.38 106.347 174.497 108.008 174.485L114.786 174.38L140.069 173.865Z" fill="#141415"/>
<path d="M70.1114 112.456C71.1994 113.232 78.683 127.208 79.8248 129.524C80.5349 130.943 81.158 132.399 81.694 133.893C79.7782 131.698 78.3519 128.966 76.7326 126.543C76.2354 125.799 75.6809 124.798 75.0011 124.22C74.8123 124.06 74.8087 124.111 74.5788 124.131C74.3167 124.409 74.2758 124.471 74.1828 124.84C74.4419 126.398 77.7235 130.339 78.7717 131.899L77.496 130.977C76.1978 129.808 73.5906 126.206 72.0255 125.988L71.8929 126.131C71.9557 127.309 73.2079 128.351 73.9723 129.149C69.635 127.325 66.1804 126.211 61.49 125.5C61.2671 123.837 60.6771 122.241 60.002 120.715C61.111 121.247 62.1168 122.021 63.2543 122.466L63.5029 122.35C64.1291 120.961 63.6492 117.644 63.5288 116.044C65.0632 116.848 66.5374 117.735 68.2514 118.086C68.8086 116.197 69.3659 114.28 70.1114 112.456Z" fill="#141415"/>
<path d="M220.26 200.254C221.293 200.183 222.334 200.165 223.369 200.126C224.046 200.552 224.546 201.035 225.025 201.677L225.228 203.615C218.627 203.831 212.036 203.776 205.437 204.121C204.305 204.203 201.7 204.646 200.84 203.881C200.593 203.661 200.54 203.434 200.577 203.116C200.66 202.403 201.64 201.624 202.143 201.153C204.381 200.612 206.97 200.708 209.274 200.616C212.935 200.455 216.597 200.334 220.26 200.254Z" fill="#141415"/>
<path d="M220.209 194.195C220.832 194.172 221.546 194.084 222.075 194.49C222.591 194.886 222.825 195.545 222.904 196.17C223.001 196.947 222.907 197.877 222.389 198.501C222.156 198.782 221.863 198.984 221.509 199.082C220.042 199.49 218.198 199.375 216.68 199.42C213.091 199.528 209.472 199.504 205.89 199.751L204.059 199.839C204.284 198.435 204.641 197.068 204.989 195.691C209.389 197.076 214.963 197.282 219.409 195.999C219.726 195.417 219.962 194.81 220.209 194.195Z" fill="#141415"/>
<path d="M158.759 159.998C159.657 159.985 161.368 159.729 162.098 160.242C162.29 160.376 162.295 160.521 162.301 160.748C162.339 162.146 155.543 170.465 154.229 171.967C153.358 172.229 152.046 172.082 151.119 172.083C151.06 171.453 150.968 170.822 150.891 170.194C153.437 166.732 156.322 163.549 158.759 159.998Z" fill="#141415"/>
<path d="M120.068 82.8225C122.007 82.4874 127.022 82.7917 128.711 83.8275C129.159 84.102 129.473 84.3815 129.597 84.9057C129.559 85.008 129.583 85.1684 129.483 85.213C129.221 85.3293 124.205 84.7548 123.021 85.4251L122.954 85.6696C123.21 85.9039 123.376 86.0134 123.738 86.0148C126.591 86.027 127.783 85.5492 130.839 86.2125C130.321 86.331 129.795 86.3962 129.27 86.4714C128.16 86.5977 125.534 86.5055 124.755 87.0833C124.37 88.1128 125.978 88.2919 126.096 89.1551C125.003 90.0562 123.228 90.6277 121.921 91.2242C121.114 87.6873 120.139 85.6913 117.279 83.383C118.206 83.1471 119.124 82.9716 120.068 82.8225Z" fill="#141415"/>
<path d="M113.83 179.685C114.081 179.793 114.366 179.911 114.468 180.195C114.723 180.904 114.222 182.182 114.162 182.941C114.01 184.893 114.119 186.933 114.209 188.888C114.383 192.664 114.643 198.59 116.978 201.698C117.702 202.663 119.346 203.744 119.832 204.711C119.947 204.942 119.924 204.83 119.825 205.113L119.393 205.176C118.934 205.067 118.52 204.931 118.108 204.694C115.713 203.32 114.443 200.301 113.758 197.759C112.707 193.862 111.826 183.19 113.83 179.685Z" fill="#141415"/>
<path d="M153.728 159.795C154.558 159.765 156.702 159.477 157.305 159.996C157.262 160.875 152.708 166.149 151.89 167.145C151.517 167.643 151.038 168.089 150.609 168.541C150.033 165.714 149.673 162.795 149.256 159.938C150.741 159.852 152.24 159.845 153.728 159.795Z" fill="#141415"/>
<path d="M165.049 142.932C165.859 143.541 167.603 146.394 168.36 147.395C169.41 148.782 170.49 150.081 171.711 151.32C170.948 152.31 170.102 153.213 169.367 154.23C168.762 155.158 168.147 156.07 167.491 156.962C166.805 154.599 166.515 152.118 166.108 149.696C165.732 147.458 165.233 145.194 165.049 142.932Z" fill="#141415"/>
<path d="M130.956 194.629C133.268 192.701 135.327 190.414 137.676 188.554C138.668 187.768 139.821 187.145 140.869 186.433C141.858 185.761 142.838 184.989 143.943 184.52L144.04 184.546L143.732 184.667L143.707 184.898C142.83 185.638 141.839 186.234 140.98 186.986C136.674 190.753 132.676 194.964 128.519 198.902C126.812 200.52 123.893 203.727 122.053 204.853L121.826 204.81C121.675 204.495 121.657 204.307 121.772 203.966C121.878 203.652 122.067 203.373 122.179 203.06C125.116 200.256 128.172 197.588 130.956 194.629Z" fill="#141415"/>
<path d="M97.8309 154.422C97.8404 154.43 97.8515 154.437 97.8596 154.446C98.0446 154.675 98.1945 154.813 98.1277 155.128C97.9369 156.026 95.6966 158.333 94.9724 159.138C93.1711 161.142 91.5897 163.317 89.9553 165.457L85.2133 171.595C83.9 173.324 82.5973 175.443 80.9739 176.885L80.793 176.85C80.9669 175.496 92.8276 160.215 94.6854 157.936C95.6815 156.714 96.7427 155.562 97.8309 154.422Z" fill="#141415"/>
<path d="M105.075 184.607L105.182 184.767C104.507 185.907 101.623 188.771 100.587 189.967C98.7598 192.073 96.9678 194.208 95.2106 196.373C93.4452 198.527 91.8168 200.685 89.6673 202.477C89.4942 202.243 89.5034 202.34 89.5112 202.087C89.5786 199.884 102.694 186.754 105.075 184.607Z" fill="#141415"/>
<path d="M96.4582 151.176L96.5945 151.234C96.5929 151.592 96.4263 151.757 96.2147 152.041C95.226 153.37 94.0856 154.611 93.0517 155.908C89.221 160.717 85.3308 165.496 81.8137 170.539C81.735 170.529 81.6717 170.468 81.6035 170.427C81.7674 169.552 89.3684 159.33 90.5224 157.911C92.3933 155.61 94.3498 153.262 96.4582 151.176Z" fill="#141415"/>
<path d="M99.5106 184.603C99.4444 185.948 93.6168 193.428 92.482 195.061C91.6213 196.3 90.8557 197.592 90.0315 198.853C90.0247 198.815 90.0136 198.777 90.0112 198.737C89.8235 195.802 97.4634 186.629 99.5106 184.603Z" fill="#141415"/>
<path d="M100.728 179.201L100.836 179.417C99.1008 181.421 97.2357 183.274 95.6859 185.435C94.3613 187.293 93.0845 189.183 91.8555 191.106C91.3169 191.962 89.9777 194.818 89.2852 195.198C89.3652 194.871 89.5329 194.596 89.5641 194.252C89.6698 193.081 90.4887 192.019 91.0838 191.032C93.8946 186.373 96.7682 182.92 100.728 179.201Z" fill="#141415"/>
<path d="M82.2578 134.919C83.5354 135.892 84.7251 137.017 85.9784 138.031C85.5139 138.789 84.974 139.485 84.4362 140.191L83.4654 141.531C83.0466 139.337 82.5592 137.132 82.2578 134.919Z" fill="#141415"/>
<path d="M142.979 48.8007C143.369 48.8301 143.77 48.8529 144.148 48.9581C145.025 49.2024 145.905 49.7796 146.328 50.6049C146.748 51.424 146.659 52.0189 146.362 52.8548C146.28 52.8615 146.198 52.8745 146.115 52.8748C145.506 52.878 144.493 52.3957 144.062 51.9743C143.101 51.0361 142.967 50.0664 142.979 48.8007Z" fill="#141415"/>
<path d="M128.603 87.0202C129.228 86.9206 129.905 86.972 130.538 86.9739L130.08 89.2221C129.466 89.0566 128.892 88.897 128.254 88.8577C127.854 88.8837 127.398 88.9833 127.042 88.7674C126.896 88.422 126.777 88.1828 126.532 87.8918C126.205 87.813 125.919 87.7557 125.637 87.5617C125.932 87.2377 128.088 87.0962 128.603 87.0202Z" fill="#141415"/>
<path d="M91.4653 140.763L91.6809 140.92C91.4883 141.676 90.1639 142.741 89.6673 143.426C88.1081 145.573 86.544 148.042 85.3943 150.437L85.2772 150.313C85.2612 150.142 85.251 150.12 85.2807 149.923C85.6445 147.516 89.6356 142.273 91.4653 140.763Z" fill="#141415"/>
<path d="M74.1936 61.2905C74.5604 61.2626 74.9954 61.2134 75.2837 61.4966C76.7969 62.9841 78.7846 82.3971 79.0135 85.5326C79.2293 88.4898 79.288 91.4924 79.2726 94.4569C79.2696 95.0088 79.3189 95.6875 78.8601 96.0727C76.8002 97.8023 45.8297 104.66 41.4032 105.497C38.6424 106.02 34.9716 106.817 32.1753 106.714C30.8763 105.191 29.9926 103.393 29.0558 101.637C27.4136 98.5061 26.2439 95.1854 25.0785 91.856C23.6547 87.7884 22.336 83.7232 21.2 79.5649C20.6623 77.5964 20.0511 75.6185 19.6758 73.6116C21.9363 72.3892 25.1138 71.853 27.6116 71.1381C30.99 70.171 34.4181 68.9402 37.892 68.4005C40.1761 68.0456 45.5022 67.685 47.4203 69.093C51.6338 66.3752 57.3412 64.5885 62.2295 63.5601C66.2047 62.7236 70.232 62.2194 74.1936 61.2905Z" fill="white"/>
<path d="M43.9115 70.7731C45.303 70.6281 46.4253 70.8361 47.7519 71.1986C48.1525 71.6966 48.4273 72.1608 48.6494 72.7654C49.6097 75.3826 50.0853 78.188 50.7469 80.8907C51.1973 82.7296 51.7594 84.5395 52.2098 86.3784C53.2013 90.4247 54.1131 94.4866 55.3131 98.4785C49.0579 99.9222 42.7283 101.075 36.4906 102.568L34.7469 102.989C32.4444 97.8626 30.0847 91.6853 28.3051 86.3598C27.2366 83.1621 26.4437 79.8392 25.1953 76.707C27.8206 75.5611 30.6136 74.7893 33.3314 73.8991C36.8821 72.7362 40.2161 71.4697 43.9115 70.7731Z" fill="#141415"/>
<path d="M45.4756 77.5341L45.8351 77.5573C46.1348 77.7588 46.2132 77.7359 46.3342 78.0924C46.1697 78.3174 46.1037 78.3759 45.8462 78.4738C45.2213 78.7118 44.4893 78.6826 43.8401 78.8858C39.9464 80.1044 36.0646 81.1329 32.0979 82.0805L31.5817 82.0802L31.4043 81.8906C31.4276 81.5722 31.4514 81.5235 31.6326 81.2592C34.4275 80.6931 37.1879 79.9913 39.9139 79.1536C41.7347 78.5947 43.5982 77.8414 45.4756 77.5341Z" fill="white"/>
<path d="M47.4692 87.6491C47.7089 87.614 47.9067 87.617 48.1474 87.6262C48.39 87.8493 48.3955 87.7668 48.412 88.1277C47.6813 88.8597 37.3666 91.4974 35.1974 92.2421C34.8214 92.3641 34.6042 92.4033 34.2344 92.241L34.2484 92.1047C35.7173 90.4735 44.6687 88.5975 47.4692 87.6491Z" fill="white"/>
<path d="M44.2491 82.1143C44.5369 82.2176 44.5821 82.2482 44.7809 82.4805L44.7341 82.7186C43.4306 83.8579 34.9913 86.1278 32.7885 86.8389C32.5967 86.8173 32.3787 86.7096 32.1945 86.6447L32.1328 86.444C32.3127 86.1803 32.4834 86.0577 32.7674 85.9273C34.7695 85.0084 37.0477 84.5042 39.1468 83.8179C40.8464 83.2623 42.5163 82.5487 44.2491 82.1143Z" fill="white"/>
<path d="M48.543 92.4141C48.6783 92.4178 48.8022 92.4895 48.9269 92.5404L48.9932 92.8296C48.8092 93.1369 48.671 93.3297 48.3109 93.4439C46.8721 93.9 45.261 94.0742 43.7851 94.5108C41.1779 95.282 38.6887 96.3535 36.1576 97.3351C35.9233 97.0676 35.8091 96.9948 35.7559 96.6486C37.2077 95.2839 46.1739 92.938 48.543 92.4141Z" fill="white"/>
<path d="M49.9667 71.4353C49.9394 71.7628 49.9375 71.7566 50.1285 72.0242C50.7609 72.2576 51.4196 72.0674 52.0532 71.9108C53.5997 71.5289 55.1196 70.9437 56.6434 70.4736C61.4733 68.9831 66.4761 67.4512 71.5403 67.0625C71.9939 68.5752 72.1665 70.1844 72.463 71.7344C72.9658 74.3619 73.5626 76.9826 73.8937 79.6392C74.2562 82.5483 74.3695 85.4952 74.8183 88.392C70.8356 89.1892 66.9757 90.3749 62.959 91.0598C62.3014 91.1718 61.3562 91.2851 60.9534 91.8445L61.0408 92.0666C62.1312 92.5235 72.6602 89.6975 74.8307 89.4725C75.0388 90.739 74.9936 92.0991 75.0342 93.3829C68.6778 94.7942 62.3949 96.5608 56.1032 98.2353L51.4989 80.5351C50.8002 77.7651 50.129 73.9786 49.1273 71.3971C48.9174 70.8569 48.6418 70.4901 48.2441 70.073L50.0395 69.2964L50.7055 68.9882L51.9214 68.4816C51.9303 68.5265 51.9409 68.5714 51.9485 68.6166C51.9799 68.8043 51.9739 68.9682 51.9642 69.157L52.1754 69.4595C52.2945 69.8271 52.4752 70.2012 52.5763 70.5683L51.7745 70.8374L49.9667 71.4353Z" fill="#141415"/>
<path d="M70.5621 82.1543C70.8962 82.1681 70.9043 82.1327 71.1307 82.371L71.0691 82.675C70.1834 83.3981 68.3321 83.3378 67.2008 83.6651C63.6331 84.6973 60.2336 86.1421 56.7008 87.2499C56.3818 87.1847 56.252 87.1222 56.0137 86.8998L56.0396 86.6623C56.8352 85.8862 65.208 83.2285 66.8175 82.8197C68.0553 82.5057 69.2948 82.3001 70.5621 82.1543Z" fill="white"/>
<path d="M65.6796 74.3027C65.9961 74.2615 66.3196 74.212 66.6388 74.2023C66.9445 74.1931 67.2236 74.2369 67.4498 74.4555L67.4113 74.6819C66.3199 75.5351 57.801 76.3234 55.3435 77.8915C55.1157 78.1133 54.8438 78.3906 54.5365 78.4917C54.1973 78.6029 54.0686 78.5231 53.787 78.3643C53.7115 78.0178 53.7107 77.9326 53.9117 77.6085C54.6999 76.3369 63.6721 74.5848 65.6796 74.3027Z" fill="white"/>
<path d="M70.8203 77.2362L70.9556 77.2275C71.2537 77.3714 71.2391 77.3568 71.3567 77.6666C71.1233 78.0396 70.8184 78.121 70.4102 78.2709C68.541 78.9569 66.4922 79.3651 64.5624 79.8739C62.3237 80.4642 60.1228 81.1504 57.9168 81.8524L57.5519 81.8611C57.3458 81.6482 57.3347 81.676 57.2598 81.3623C57.8438 80.4666 68.9222 77.7875 70.8203 77.2362Z" fill="white"/>
<path d="M71.3941 86.0673C71.7742 86.0024 72.0079 85.9737 72.3931 86.0584L72.5654 86.4693C71.3625 87.2245 65.7108 87.9949 63.8183 88.3812C63.3671 88.5527 63.1196 88.5974 62.6719 88.4258L62.6895 88.2165C63.9922 87.04 69.4467 86.4019 71.3941 86.0673Z" fill="white"/>
<path d="M73.2142 63.2449C73.6251 63.0496 74.0028 62.8105 74.4713 62.8538C74.8619 63.1965 74.8711 63.4578 74.9049 63.9612C74.9289 64.3401 74.9497 64.7191 74.9674 65.0982L75.1167 65.6381L75.1248 66.2559C75.2758 67.0796 75.398 67.8974 75.4932 68.7295C75.8506 71.2441 76.3345 73.7858 76.6023 76.3059C76.9313 78.3417 77.1607 80.4035 77.531 82.431C77.6768 84.0867 77.8569 85.7487 77.8705 87.4121C77.8994 87.9031 77.9662 88.4227 77.9175 88.9126L77.9192 88.9919C78.0907 89.8935 78.0463 90.8562 78.0344 91.7724L78.0826 93.1555C78.0628 93.8329 78.0517 94.5113 78.006 95.1876C72.7335 97.0657 66.4404 98.4247 60.9624 99.8584L59.909 100.088C59.1543 100.275 58.3979 100.454 57.6397 100.627C56.9067 100.798 56.1763 100.994 55.4259 101.067C50.6495 102.542 44.0199 103.852 39.068 104.637L37.6741 104.853C36.225 105.086 34.7594 105.283 33.3219 105.576C33.2443 105.293 33.2291 105.266 33.3527 104.993C33.4566 104.764 33.5253 104.671 33.5264 104.408C33.5275 104.152 33.5756 104.151 33.7222 103.944C33.8756 104.093 34.0068 104.19 34.1832 104.307C34.9236 104.35 35.6155 104.095 36.3202 103.893L37.7249 103.559L39.3388 103.276L40.6713 102.967C44.842 102.242 48.9521 101.131 53.0847 100.212L57.2818 99.1849L58.5083 98.9043L58.7748 98.8919C61.6392 97.9432 74.299 95.2482 75.4435 94.2868C76.3692 92.2683 75.8249 89.1774 75.7326 86.9931C75.5606 86.1164 75.5603 85.178 75.5103 84.2853C75.2484 81.4558 74.8545 78.6448 74.3284 75.8525C73.7861 72.9399 73.0841 70.0019 72.8523 67.0456C72.8214 66.9687 72.7892 66.8927 72.76 66.8154C72.6072 66.4093 72.5312 66.2519 72.212 65.9535C71.761 65.7734 71.3807 65.8591 70.91 65.9235L70.2037 65.9254C69.8878 65.8475 69.8553 65.8477 69.6432 65.6054C69.6238 65.2383 69.7587 65.0695 69.9408 64.7657L69.3784 64.4011C69.1514 64.6366 68.928 64.8757 68.7084 65.1185L68.6267 65.2118C68.4192 64.8777 68.2436 64.588 67.8987 64.3794C67.8197 64.3318 67.7389 64.2875 67.6591 64.2415C68.7687 63.9718 69.9127 63.8084 71.0377 63.6117C71.7581 63.4556 72.4855 63.3531 73.2142 63.2449Z" fill="white"/>
<path d="M73.2153 63.2445C73.2656 63.2523 73.3157 63.2629 73.3665 63.2686C73.61 63.2951 73.8142 63.2558 74.0528 63.2147C74.1139 63.5207 74.0274 63.772 73.957 64.0698C73.8751 64.0741 73.5259 64.0752 73.4558 64.1047C73.5948 64.5608 73.7423 64.8621 74.026 65.2468C74.0801 66.707 73.0985 66.302 73.8277 67.2767L73.6067 67.4268L73.33 67.3524L72.8534 67.0451C72.8225 66.9683 72.7903 66.8923 72.7611 66.8149C72.6083 66.4089 72.5323 66.2514 72.2131 65.9531C71.7621 65.7729 71.3818 65.8587 70.9111 65.923L70.2048 65.9249C69.8889 65.847 69.8564 65.8473 69.6443 65.6049C69.6249 65.2378 69.7598 65.0691 69.9419 64.7653L69.3795 64.4006C69.1525 64.6362 68.9291 64.8753 68.7095 65.118L68.6278 65.2113C68.4203 64.8773 68.2447 64.5875 67.8998 64.379C67.8208 64.3314 67.74 64.287 67.6602 64.241C68.7698 63.9713 69.9138 63.8079 71.0388 63.6113C71.7592 63.4552 72.4866 63.3527 73.2153 63.2445Z" fill="#141415"/>
<path d="M74.1348 68.3255C74.737 68.2567 74.7849 68.3912 75.2864 68.649C75.3521 68.6828 75.4243 68.7025 75.4931 68.7291C75.8504 71.2437 76.3343 73.7854 76.6021 76.3054C75.4436 75.234 75.7914 75.2101 75.275 73.8638L75.1341 73.8722L74.7375 74.4684C74.7159 74.4527 74.6891 74.4427 74.6731 74.4216C74.134 73.7194 74.7186 72.9517 74.6596 72.1991C74.3599 72.1767 74.1459 72.1769 73.8887 72.0106C73.896 71.4452 74.9109 70.9337 75.2171 70.4619C75.3997 70.1806 75.4103 70.0705 75.374 69.7621C75.0751 69.9812 74.816 70.2244 74.4519 70.3131L74.5641 69.9274L74.275 70.0973C74.153 69.975 74.2517 68.6904 74.1348 68.3255Z" fill="#141415"/>
<path d="M29.5611 71.941C32.7141 71.0486 36.3676 69.7358 39.6161 69.5216C39.6413 69.9111 39.6343 70.3193 39.7703 70.6888C38.4224 71.0922 37.0523 71.462 35.7292 71.941L33.5752 72.7025C31.1068 73.464 26.7386 74.453 24.7137 75.7782C24.4567 76.033 24.1942 76.2578 24.0113 76.5724C25.1676 78.9285 25.6624 81.6593 26.4841 84.1534L26.7804 85.0496L27.1544 86.1232C28.155 89.4794 29.4018 92.8194 30.7832 96.0376L30.9044 96.4144C31.7646 98.2398 32.3971 100.215 33.1223 102.101C33.3241 102.599 33.7897 103.416 33.7223 103.944C33.5757 104.151 33.5275 104.151 33.5265 104.408C33.5254 104.671 33.4567 104.763 33.3528 104.992C33.2292 105.265 33.2443 105.293 33.322 105.575C33.1056 105.536 32.9346 105.479 32.7295 105.403C32.2494 104.882 32.0003 104.244 31.7073 103.607C31.2098 102.952 30.8465 102.205 30.4838 101.47C28.3963 97.9888 27.1555 94.0288 25.8165 90.2192C24.2813 85.6109 22.7907 81.0574 21.469 76.3814L21.1339 75.4449L20.7109 74.3304C21.5039 74.1523 22.2988 73.9835 23.0957 73.824C25.1649 73.0268 27.4203 72.5269 29.5611 71.941Z" fill="white"/>
<path d="M31.7079 103.606C31.9457 102.85 31.4119 102.418 31.2383 101.706L31.4028 101.572C31.6478 101.599 31.8207 101.613 32.0341 101.745C32.3963 101.969 32.57 102.07 33.0061 102.096C33.045 102.098 33.084 102.099 33.1229 102.101C33.3247 102.599 33.7903 103.416 33.7229 103.944C33.5763 104.15 33.5281 104.151 33.527 104.407C33.526 104.67 33.4573 104.763 33.3534 104.992C33.2298 105.265 33.2449 105.293 33.3225 105.575C33.1061 105.535 32.9352 105.479 32.7301 105.403C32.25 104.881 32.0008 104.244 31.7079 103.606Z" fill="#141415"/>
<path d="M21.1348 75.4453L21.3825 75.1621C21.6586 75.1783 21.6388 75.124 21.8478 75.3461C22.2486 75.7716 22.6317 76.6142 22.5917 77.2069C22.5884 77.2564 22.5753 77.3048 22.5671 77.3535L22.3862 77.4263C22.1045 77.1982 21.9999 76.9575 21.851 76.6385L21.4698 76.3818L21.1348 75.4453Z" fill="#141415"/>
<path d="M25.8555 85.8097C26.1503 85.4921 26.3818 85.2421 26.7806 85.0498L27.1545 86.1234C26.7847 86.3658 26.6944 86.4548 26.2409 86.4762C25.9834 86.2235 25.9567 86.1581 25.8555 85.8097Z" fill="#141415"/>
<path d="M30.9042 96.4148L30.6986 96.708C30.3899 96.8392 30.3783 96.8565 30.0567 96.774C29.8365 96.5855 29.7023 96.4659 29.573 96.1984C29.4521 95.9484 29.5051 95.9587 29.5871 95.7207L29.8327 95.626C30.1879 95.7266 30.4611 95.8638 30.783 96.038L30.9042 96.4148Z" fill="#141415"/>
<path d="M58.0781 66.3693C61.0677 65.3398 64.537 64.6686 67.6597 64.241C67.7395 64.287 67.8204 64.3313 67.8994 64.3789C68.2443 64.5875 68.4199 64.8772 68.6274 65.2113L68.709 65.118C68.9287 64.8752 69.1521 64.6361 69.3791 64.4006L69.9415 64.7652C69.7594 65.069 69.6244 65.2378 69.6439 65.6049C69.856 65.8472 69.8885 65.847 70.2044 65.9249C69.658 65.9985 69.1128 66.0801 68.5689 66.1697C67.1049 66.4234 65.6607 66.7045 64.2197 67.0716L62.8572 67.4476C62.1468 67.6415 61.3815 67.9239 60.659 68.037C59.5718 68.3421 58.4038 68.7847 57.2952 68.9602L55.3638 69.6357L53.8298 70.1786L52.5768 70.5679C52.4756 70.2008 52.2949 69.8267 52.1759 69.4591L51.9646 69.1566C51.9744 68.9678 51.9803 68.8039 51.9489 68.6162C51.9414 68.571 51.9308 68.5261 51.9219 68.4812C53.7153 67.4971 56.108 66.8852 58.0781 66.3693Z" fill="white"/>
<path d="M55.3643 69.636C55.3264 69.5992 55.285 69.5657 55.2509 69.5254C54.9929 69.2214 54.948 68.8259 54.9991 68.4455L55.2214 68.3752L55.466 68.8367L55.6732 68.8397C55.8214 68.3576 55.212 68.1677 55.275 67.5391L55.5277 67.6397C55.7354 67.9719 55.9015 68.3519 56.2789 68.5094C56.3822 68.5032 56.5834 68.4888 56.6814 68.4934C57.0441 68.5105 57.082 68.6885 57.2957 68.9606L55.3643 69.636Z" fill="#141415"/>
<path d="M63.4142 66.29C63.6964 66.5419 63.968 66.7886 64.2196 67.0721L62.857 67.4481C62.6081 67.3169 62.3931 67.0521 62.2051 66.8443L62.2895 66.6493C62.5622 66.5508 62.7577 66.4505 63.052 66.4978C63.1045 66.5062 63.1548 66.5248 63.206 66.5384L63.4142 66.29Z" fill="#141415"/>
<path d="M63.6328 65.9755C63.8976 65.9785 64.1065 66.0904 64.3751 66.1197L64.5536 65.9747L64.5442 65.4101C64.8409 65.109 65.2055 65.191 65.617 65.165C65.5629 65.2221 65.5082 65.2787 65.455 65.3365C65.0722 65.7529 64.8993 66.3829 64.3794 66.635C63.9547 66.5078 63.8952 66.3225 63.6328 65.9755Z" fill="#141415"/>
<path d="M39.6172 69.5212C41.6709 69.4333 43.69 69.2862 45.7198 69.6881C43.6716 69.8669 41.7645 70.1483 39.7714 70.6885C39.6353 70.319 39.6423 69.9108 39.6172 69.5212Z" fill="#141415"/>
<path d="M195.286 41.8975C196.179 42.5754 198.942 47.0909 199.765 48.2744C201.538 50.8221 203.463 53.3045 205.397 55.731C206.424 57.0202 207.534 58.2632 208.482 59.6111C205.764 62.1374 202.651 64.3623 199.75 66.6836C193.561 71.638 187.311 76.5147 181 81.3137C180.446 81.763 179.913 82.1401 179.296 82.501C178.481 81.4046 177.832 80.0794 177.168 78.8845C175.435 75.768 173.85 72.5709 172.12 69.4495C171.404 68.1578 170.715 66.7236 169.785 65.5723C169.506 65.2282 169.133 64.9877 168.766 64.7492C169.939 63.4315 171.398 62.324 172.751 61.1974L178.873 56.1221C181.108 54.2654 183.256 52.3012 185.461 50.409C188.749 47.5879 192.082 44.8141 195.286 41.8975Z" fill="white"/>
<path d="M195.432 43.7942C196.806 45.3345 198.318 48.1845 199.629 50.0018C202.011 53.3039 204.662 56.3847 207.118 59.627C198.626 66.4079 190.066 73.1023 181.439 79.7101C180.852 80.1834 180.261 80.6533 179.668 81.1197C177.808 78.7825 176.411 75.778 175.024 73.1413L170.758 65.1557C176.465 64.7255 182.181 64.5384 187.897 64.2719C189.964 59.653 191.552 54.6662 193.204 49.8833C193.814 48.1164 194.492 45.299 195.432 43.7942Z" fill="#141415"/>
<path d="M193.663 44.6289L193.777 44.7847C193.137 47.0876 192.226 49.3384 191.39 51.5761C189.954 55.4165 188.475 59.2636 187.2 63.1609C181.877 63.3892 176.572 63.8985 171.253 64.1287L171.141 64.0146C171.188 63.9102 191.547 46.4116 193.663 44.6289Z" fill="#141415"/>
<path d="M242.714 64.2998C245.792 63.9822 250.715 64.9571 253.344 66.6483C255.886 68.283 257.252 70.8909 257.856 73.7997C258.656 77.6563 257.425 81.7259 255.274 84.9433C252.529 89.0474 248.832 91.6738 243.999 92.6165C243.697 92.6802 243.394 92.727 243.087 92.7569C239.607 93.1161 236.027 92.3749 233.278 90.123C233.105 89.9791 232.936 89.8309 232.771 89.6785C232.606 89.5263 232.445 89.3701 232.288 89.2097C232.131 89.0494 231.978 88.8853 231.829 88.7174C231.68 88.5495 231.535 88.378 231.394 88.2029C231.253 88.0278 231.117 87.8493 230.985 87.6676C230.854 87.4856 230.727 87.3006 230.604 87.1125C230.481 86.9244 230.364 86.7333 230.251 86.5393C230.137 86.3454 230.029 86.1488 229.926 85.9493C229.823 85.75 229.724 85.5482 229.631 85.3439C229.538 85.1398 229.449 84.9334 229.366 84.7247C229.283 84.5161 229.205 84.3055 229.133 84.0931C229.06 83.8806 228.993 83.6665 228.931 83.4506C228.869 83.2348 228.812 83.0175 228.761 82.799C228.709 82.5804 228.664 82.3607 228.623 82.1397C228.583 81.9188 228.548 81.697 228.519 81.4743C228.489 81.2518 228.466 81.0286 228.447 80.8048C228.069 76.4764 229.306 72.6095 232.13 69.3131C235.05 65.9041 238.29 64.6609 242.714 64.2998Z" fill="white"/>
<path d="M248.729 71.7975C249.204 71.7891 249.686 71.771 250.143 71.9163C251.047 72.2033 251.43 72.9951 251.826 73.7806C249.279 76.4119 246.717 79.1535 244.314 81.9178C243.012 83.4161 241.541 85.7822 239.981 86.9362C239.162 87.0918 238.445 86.7296 237.702 86.4282C236.66 85.1568 235.831 83.6939 234.961 82.3022C234.125 81.0787 233.275 79.8633 232.508 78.5949C232.895 78.049 233.393 77.4217 233.916 77.0016C234.252 76.7321 234.702 76.5211 235.142 76.6099C236.159 76.8149 238.384 80.6797 239.136 81.6781C242.559 78.7691 245.538 74.9887 248.729 71.7975Z" fill="#141415"/>
<path d="M112.167 59.1596C113.455 59.0379 114.743 59.0283 116.032 59.1309L116.039 59.2738L116.052 59.5113C116.174 61.9093 116.711 64.3307 117.151 66.6868C118.32 66.7587 119.456 66.8997 120.498 67.4872C121.586 68.0999 122.481 69.2076 122.801 70.4206C122.991 71.1393 123.177 72.5005 122.78 73.1657L122.527 73.2128C121.565 72.5476 122.477 70.1858 120.641 68.6499C119.732 67.8892 118.672 67.4877 117.489 67.6054C117.242 68.0125 117.904 69.025 117.836 69.6662C117.587 70.0551 117.522 70.0208 117.095 70.1458C112.653 71.0815 108.181 71.8365 103.678 72.4107C103.371 71.1721 103.272 69.839 103.083 68.5757C102.741 66.3415 102.384 64.1096 102.014 61.8798C105.074 60.263 108.746 59.4788 112.167 59.1596Z" fill="white"/>
<path d="M115.292 61.7725C115.852 62.4412 116.599 68.0856 116.905 69.4449C112.717 70.3538 108.456 70.8761 104.241 71.6363C104.016 69.4112 103.818 67.1838 103.649 64.9539C103.631 64.6417 103.642 64.3691 103.685 64.0593C104.237 65.2912 104.023 68.1984 104.932 70.3043C105.139 70.785 105.352 71.0785 105.843 71.2708C107.026 71.0428 107.723 69.5815 108.652 68.9114C109.303 68.4418 109.819 69.5147 110.451 69.6461C112.139 68.9642 114.383 63.5465 115.292 61.7725Z" fill="#141415"/>
<path d="M111.872 60.51C112.802 60.4012 113.771 60.4358 114.709 60.4229C112.985 62.3234 112.537 65.0807 110.961 67.099C110.687 67.4506 110.422 67.7658 109.957 67.8193C109.739 67.6706 109.73 67.7003 109.618 67.4317C109.345 66.7822 109.552 66.3919 109.816 65.7868L109.442 64.3057C109.15 63.937 108.799 63.5981 108.479 63.2526C107.247 63.3205 106.145 63.6727 104.978 64.0444C104.501 63.8997 104.07 63.769 103.641 63.5123C103.448 63.1964 103.415 63.201 103.478 62.842C104.718 61.3331 109.874 60.7761 111.872 60.51Z" fill="#141415"/>
<path d="M107.029 65.0809C107.391 65.0831 107.919 65.1223 108.212 65.3466C108.366 65.4634 108.395 65.6528 108.406 65.8354C108.469 66.8433 106.682 68.6963 105.993 69.3455L105.763 69.2462C105.521 68.5726 104.871 67.1895 105.017 66.5003C105.433 66.1584 106.603 66.3702 107.203 66.1649L107.135 66.0721C106.755 66.0207 106.402 66.0058 106.08 65.7791L106.077 65.5446C106.428 65.1986 106.563 65.1948 107.029 65.0809Z" fill="#141415"/>
<path d="M75.9969 191.984C76.9093 191.937 78.6798 191.689 79.4134 192.273L79.4155 192.499C78.2553 193.102 73.9191 192.919 72.3109 193.048C61.1584 193.942 48.5173 196.692 39.8884 204.249C37.2201 206.586 34.3836 210.335 34.2305 214.03C34.1569 215.808 34.9165 217.533 36.1692 218.782C37.8566 220.465 40.3964 221.92 42.4636 223.127C53.5937 229.621 64.7121 231.538 77.284 232.973C81.8139 233.508 86.3564 233.895 90.9116 234.132C95.4669 234.369 100.025 234.457 104.586 234.394C104.778 234.404 105.012 234.399 105.195 234.45C105.551 234.549 105.61 234.614 105.797 234.905L105.694 235.162C105.412 235.344 105.157 235.426 104.825 235.453C103.296 235.576 101.622 235.359 100.081 235.31C96.9913 235.211 93.9045 235.184 90.8169 235.025C79.8806 234.462 67.089 233.525 56.6307 230.419C53.6459 229.533 50.7363 228.32 47.876 227.096C43.7431 225.329 39.3647 222.998 35.9785 220.029C34.3968 218.643 33.3535 217.018 33.2212 214.861C32.9983 211.226 35.1221 207.753 37.4584 205.147C46.6533 194.889 63.0095 192.713 75.9969 191.984Z" fill="white"/>
<path d="M204.938 83.1854C205.293 83.1775 205.519 83.2265 205.853 83.3479C207.922 85.1996 204.297 102.556 205.296 105.401C205.772 105.807 206.262 105.574 206.803 105.36C207.897 104.929 208.908 104.21 209.913 103.6C212.497 102.031 216.605 99.4621 219.621 99.4751C220.046 99.477 220.468 99.58 220.755 99.9179C221.289 100.545 221.188 101.755 221.136 102.532C220.923 105.749 220.167 108.984 219.534 112.14C218.636 116.612 217.745 121.068 217.162 125.594C219.985 124.271 222.684 122.266 225.865 121.865C226.668 121.763 227.586 121.823 228.236 122.36C228.814 122.837 229.047 123.587 229.094 124.312C229.159 125.312 228.964 126.357 228.771 127.334C228.298 129.719 227.468 132.02 226.91 134.384C226.451 136.329 226.251 138.367 225.727 140.29C225.607 140.727 225.48 141.081 225.181 141.425L224.981 141.402C223.956 139.265 228.479 127.122 227.893 123.512C227.699 123.239 227.555 123.047 227.226 122.919C224.843 121.994 219.904 125.269 217.646 126.208C217.281 126.36 216.836 126.579 216.443 126.424C216.132 125.437 217.244 119.824 217.423 118.515C217.775 117.202 217.893 115.725 218.131 114.375C218.561 111.942 220.408 103.525 220.045 101.414C219.988 101.085 219.859 100.863 219.54 100.72C218.914 100.439 217.863 100.814 217.245 101.022C215.246 101.695 213.338 102.651 211.513 103.703C209.688 104.754 207.544 106.439 205.518 106.924C205.155 107.011 204.98 107.023 204.66 106.836C203.454 104.186 205.929 89.1414 205.303 84.4776C205.295 84.4221 205.286 84.3667 205.278 84.311C199.372 85.8269 187.649 95.9401 182.687 100.122C181.673 100.977 180.72 101.956 179.681 102.767C179.055 103.255 177.946 104.131 177.137 104.142C177.152 104.019 177.148 103.983 177.212 103.856C177.704 102.871 180.082 101.133 180.981 100.355C186.697 95.4088 198.157 85.5545 204.938 83.1854Z" fill="white"/>
<path d="M206.24 143.843C207.488 143.807 208.735 143.812 209.982 143.856C221.868 144.26 233.428 147.084 244.541 151.183C245.938 151.699 248.559 152.308 249.561 153.384C249.655 154.078 249.416 154.774 249.206 155.429C247.811 159.781 245.879 164.069 244.215 168.328C243.612 169.872 243.163 171.991 242.261 173.339C242.049 173.656 241.836 173.909 241.457 173.989C241.279 173.839 241.34 173.924 241.244 173.668C241.008 173.041 241.157 172.688 241.43 172.107C241.456 172.052 241.484 171.996 241.51 171.941C242.891 169.089 243.946 165.957 245.087 162.998C246.251 159.98 247.535 157.024 248.602 153.967C246.681 153.099 244.651 152.403 242.67 151.685C240.377 150.846 238.061 150.078 235.721 149.382C233.38 148.686 231.021 148.063 228.643 147.512C226.264 146.962 223.871 146.485 221.463 146.082C219.055 145.679 216.637 145.351 214.208 145.098C211.889 144.86 209.566 144.682 207.238 144.563C206.174 144.514 204.107 144.767 203.211 144.49C202.994 144.423 203.062 144.426 202.953 144.184C202.98 144.156 203.003 144.123 203.034 144.1C203.576 143.68 205.5 143.849 206.24 143.843Z" fill="white"/>
<path d="M195.38 163.223C195.402 163.226 195.424 163.228 195.447 163.232C197.261 163.54 199.121 164.127 200.925 164.536C211.447 166.921 221.989 169.958 231.353 175.442C232.656 176.204 234.335 176.933 235.247 178.165C235.303 178.61 235.185 178.65 234.929 179.002C225.91 172.233 214.518 168.651 203.659 166.12C201.341 165.581 199.008 164.974 196.628 164.814C196.237 164.788 195.711 164.775 195.352 164.61C195.025 164.459 194.995 164.362 194.855 164.055C194.919 163.66 195.112 163.494 195.38 163.223Z" fill="white"/>
<path d="M230.969 159.023C232.341 158.949 233.267 159.602 234.351 160.342C234.838 160.061 235.3 159.723 235.779 159.427C236.249 159.137 236.538 158.988 237.086 159.118C237.51 159.957 235.218 160.476 234.994 161.342C235.593 162.775 239.371 163.553 240.135 164.704C239.825 165.426 235.634 166.841 234.703 167.241C234.638 167.256 234.573 167.275 234.506 167.286C234.056 167.362 233.789 167.156 233.434 166.921L233.398 166.573C234.337 165.416 236.786 165.011 238.194 164.635C236.674 163.833 235.285 162.786 233.888 161.792C233.088 162.731 232.097 164.467 230.848 164.813C230.432 164.928 230.253 164.833 229.913 164.625C229.535 164.03 229.511 163.444 229.521 162.75C229.543 161.31 229.929 160.036 230.969 159.023Z" fill="white"/>
<path d="M231.074 159.982C232.188 159.984 232.651 160.319 233.467 161.02C232.969 161.641 232.427 162.232 231.903 162.831C231.735 163.009 231.549 163.24 231.35 163.381C231.038 163.599 230.971 163.578 230.635 163.488C230.526 163.328 230.435 163.181 230.398 162.988C230.229 162.088 230.533 160.711 231.074 159.982Z" fill="#141415"/>
<path d="M234.669 117.997C238.667 117.87 242.709 118.036 246.707 118.127C251.909 118.247 257.185 118.328 262.358 118.902C262.976 118.971 263.792 118.983 264.199 119.494C264.116 119.884 264.107 119.864 263.782 120.101C259.761 119.734 255.755 119.41 251.718 119.27C247.704 119.161 243.689 119.083 239.674 119.037C238.305 119.019 235.715 119.315 234.485 118.923C234.232 118.842 234.266 118.794 234.145 118.577L234.284 118.168L234.669 117.997Z" fill="white"/>
<path d="M39.6589 124.24C40.3428 124.19 41.0118 124.12 41.6948 124.212C41.9734 124.407 41.995 124.414 42.1041 124.734L41.9228 124.974C41.4973 125.193 41.0239 125.24 40.5524 125.277C37.3418 125.529 34.0321 125.436 30.8077 125.502C25.6876 125.609 20.5691 125.769 15.4522 125.98C14.9696 125.995 14.4038 126.042 13.9309 125.933C13.5822 125.852 13.3978 125.757 13.1992 125.466L13.3543 125.145L13.4304 125.283L13.3577 125.139C13.524 124.996 13.6352 124.895 13.8579 124.84C14.4605 124.694 19.6427 124.746 20.6881 124.727C27.0132 124.621 33.3368 124.459 39.6589 124.24Z" fill="white"/>
<path d="M218.244 154.732C218.625 154.721 218.966 154.688 219.307 154.887C219.936 155.254 220.915 155.755 221.105 156.501L220.952 156.738C219.952 157.067 219.59 155.728 218.68 155.732C218.489 155.989 218.46 156.225 218.45 156.537C218.426 157.378 218.585 158.976 219.236 159.569C219.417 159.733 219.562 159.7 219.795 159.664C222.056 159.314 221.005 156.018 221.887 154.794C222.229 154.775 222.354 154.841 222.611 155.073C223.659 156.021 224.211 157.051 224.29 158.444C225.331 158.916 226.691 159.418 227.548 160.175C227.888 160.475 227.87 160.648 227.898 161.089C226.784 161.622 223.577 163.565 222.552 163.514C222.28 163.501 222.318 163.464 222.151 163.28L222.192 162.884C222.581 162.294 225.685 161.083 226.486 160.694C224.499 159.5 223.537 158.432 221.4 159.912C220.975 160.207 220.551 160.519 220.03 160.611C219.559 160.694 219.036 160.573 218.656 160.287C218.037 159.821 217.807 158.824 217.705 158.106C217.541 156.961 217.522 155.691 218.244 154.732Z" fill="white"/>
<path d="M222.454 156.565C222.727 156.871 223.136 157.357 223.147 157.779C223.16 158.23 222.943 158.365 222.664 158.662L222.241 158.638C221.975 158.134 222.329 157.117 222.454 156.565Z" fill="#141415"/>
<path d="M211.453 155.873C212.845 156.337 215.189 157.144 216.205 158.19C216.422 158.414 216.429 158.41 216.416 158.733C215.642 159.275 214.255 159.466 213.332 159.825C213.188 159.878 212.973 159.974 212.814 159.988C212.469 160.017 212.262 159.899 211.986 159.715L211.959 159.49C212.477 158.809 213.858 158.589 214.678 158.292C213.622 157.673 212.446 157.33 211.416 156.657C211.244 156.285 211.314 156.266 211.453 155.873Z" fill="white"/>
</g>
<defs>
<clipPath id="clip0_901_5209">
<rect width="277" height="277" fill="white"/>
</clipPath>
</defs>
</svg>
