<svg width="13" height="14" viewBox="0 0 13 14" fill="none" xmlns="http://www.w3.org/2000/svg">
<path d="M10.1816 0C11.5875 0 12.7275 1.14008 12.7275 2.5459C12.7273 3.95151 11.5873 5.09082 10.1816 5.09082C9.47442 5.09077 8.83431 4.80259 8.37305 4.33691L4.99609 6.30762C5.05814 6.52769 5.09082 6.76008 5.09082 7C5.09082 7.23963 5.05799 7.47157 4.99609 7.69141L8.375 9.66113C8.8361 9.19669 9.47548 8.90923 10.1816 8.90918C11.5873 8.90918 12.7273 10.0485 12.7275 11.4541C12.7275 12.8599 11.5875 14 10.1816 14C8.51462 13.9999 7.28469 12.3413 7.73242 10.7598L4.35449 8.79102C3.89327 9.25678 3.25315 9.54578 2.5459 9.5459C1.14008 9.5459 6.44255e-08 8.40582 0 7C0 5.59418 1.14008 4.4541 2.5459 4.4541C3.25297 4.45422 3.89232 4.74343 4.35352 5.20898L7.73145 3.2373C7.28596 1.65633 8.51587 0.000117569 10.1816 0ZM10.1816 10.1816C9.48505 10.1817 8.90943 10.7685 8.90918 11.4541C8.90918 12.1569 9.47881 12.7274 10.1816 12.7275C10.8845 12.7275 11.4541 12.157 11.4541 11.4541C11.4539 10.7514 10.8844 10.1816 10.1816 10.1816ZM2.5459 5.72754C1.84299 5.72754 1.27246 6.29709 1.27246 7C1.27246 7.70291 1.84299 8.27246 2.5459 8.27246C3.24886 8.27221 3.81836 7.68866 3.81836 7C3.81836 6.31134 3.24886 5.72778 2.5459 5.72754ZM10.1816 1.27246C9.47881 1.27256 8.90918 1.84305 8.90918 2.5459C8.90942 3.23445 9.47871 3.81826 10.1816 3.81836C10.8844 3.81836 11.4539 3.2486 11.4541 2.5459C11.4541 1.84299 10.8845 1.27246 10.1816 1.27246Z" fill="black"/>
</svg>
