<svg width="24" height="24" viewBox="0 0 24 24" fill="none" xmlns="http://www.w3.org/2000/svg">
<path fill-rule="evenodd" clip-rule="evenodd" d="M15.7929 2.12132C17.288 0.626226 19.712 0.626228 21.2071 2.12132C22.7022 3.61642 22.7022 6.04044 21.2071 7.53554C16.7884 11.9543 12.3661 16.3694 7.95099 20.7917C7.70609 21.037 7.49007 21.2534 7.2334 21.4226C7.00774 21.5714 6.76301 21.6891 6.50584 21.7723C6.21333 21.867 5.90942 21.9005 5.56489 21.9385C4.4133 22.0655 3.26192 22.1944 2.11044 22.3223C1.80851 22.3559 1.50771 22.2503 1.2929 22.0355C1.07809 21.8207 0.972576 21.5199 1.00612 21.218C1.13407 20.0665 1.26289 18.9151 1.38992 17.7635C1.42792 17.419 1.46144 17.1151 1.55613 16.8226C1.63938 16.5654 1.75701 16.3207 1.90582 16.095C2.07507 15.8384 2.29144 15.6223 2.53673 15.3774C6.95893 10.9622 11.3742 6.54003 15.7929 2.12132ZM13.5 7.24264L4.00084 16.7418C3.79109 16.9516 3.55297 17.148 3.45891 17.4386C3.43486 17.5129 3.4203 17.6012 3.36993 18.0545L3.13193 20.1965L5.27394 19.9585C5.56876 19.9257 5.87742 19.9211 6.13238 19.753C6.19758 19.71 6.26412 19.6501 6.58663 19.3276L16.0858 9.82842L13.5 7.24264ZM17.5 8.41421L14.9142 5.82843L17.2071 3.53553C17.9212 2.82149 19.0789 2.82149 19.7929 3.53553C20.507 4.24958 20.507 5.40728 19.7929 6.12132L17.5 8.41421Z" fill="#718096"/>
</svg>
