<svg width="31" height="30" viewBox="0 0 31 30" fill="none" xmlns="http://www.w3.org/2000/svg">
<path fill-rule="evenodd" clip-rule="evenodd" d="M21.6206 5.18182C20.4156 5.18182 19.4387 6.15865 19.4387 7.36364C19.4387 8.54444 20.4151 9.54545 21.6206 9.54545C22.8255 9.54545 23.8024 8.56862 23.8024 7.36364C23.8024 6.15865 22.8255 5.18182 21.6206 5.18182ZM18.5203 10.4344C19.3111 11.2327 20.4081 11.7273 21.6206 11.7273C24.0305 11.7273 25.9842 9.77361 25.9842 7.36364C25.9842 4.95367 24.0305 3 21.6206 3C18.7646 3 16.656 5.83968 17.4202 8.5502L11.6299 11.9293C10.8391 11.1309 9.74215 10.6364 8.52965 10.6364C6.11968 10.6364 4.16602 12.59 4.16602 15C4.16602 17.41 6.11968 19.3636 8.52965 19.3636C9.74238 19.3636 10.8396 18.8689 11.6304 18.0703L17.4216 21.445C16.6537 24.1564 18.7625 27 21.6206 27C24.0305 27 25.9842 25.0463 25.9842 22.6364C25.9842 20.2264 24.0305 18.2727 21.6206 18.2727C20.4099 18.2727 19.3143 18.7658 18.5238 19.562L12.7302 16.186C12.8364 15.8089 12.8933 15.4111 12.8933 15C12.8933 14.5887 12.8364 14.1907 12.73 13.8134L18.5203 10.4344ZM10.7115 15C10.7115 16.1808 9.73508 17.1818 8.52965 17.1818C7.32467 17.1818 6.34783 16.205 6.34783 15C6.34783 13.795 7.32467 12.8182 8.52965 12.8182C9.73508 12.8182 10.7115 13.8192 10.7115 15ZM21.6206 20.4545C22.8255 20.4545 23.8024 21.4314 23.8024 22.6364C23.8024 23.8413 22.8255 24.8182 21.6206 24.8182C20.4156 24.8182 19.4387 23.8413 19.4387 22.6364C19.4387 21.4606 20.426 20.4545 21.6206 20.4545Z" fill="white"/>
</svg>
