<svg width="41" height="40" viewBox="0 0 41 40" fill="none" xmlns="http://www.w3.org/2000/svg">
<path d="M37.0563 16.7345H35.7067V16.6654H20.6267V23.332H30.0961C28.7146 27.2129 25.0024 29.9987 20.6267 29.9987C15.0747 29.9987 10.5733 25.5212 10.5733 19.9987C10.5733 14.4762 15.0747 9.9987 20.6267 9.9987C23.1894 9.9987 25.521 10.9604 27.2962 12.5312L32.0355 7.81703C29.043 5.04286 25.0401 3.33203 20.6267 3.33203C11.3734 3.33203 3.87109 10.7945 3.87109 19.9987C3.87109 29.2029 11.3734 36.6654 20.6267 36.6654C29.8799 36.6654 37.3822 29.2029 37.3822 19.9987C37.3822 18.8812 37.2666 17.7904 37.0563 16.7345Z" fill="#FFC107"/>
<path d="M5.80273 12.2412L11.3078 16.257C12.7973 12.5887 16.4048 9.9987 20.6264 9.9987C23.1891 9.9987 25.5207 10.9604 27.2959 12.5312L32.0352 7.81703C29.0427 5.04286 25.0398 3.33203 20.6264 3.33203C14.1906 3.33203 8.60929 6.9462 5.80273 12.2412Z" fill="#FF3D00"/>
<path d="M20.6256 36.6672C24.9536 36.6672 28.8861 35.0197 31.8594 32.3406L26.6735 27.9756C24.9913 29.2431 22.9002 30.0006 20.6256 30.0006C16.2675 30.0006 12.567 27.2364 11.173 23.3789L5.70898 27.5664C8.48203 32.9639 14.1136 36.6672 20.6256 36.6672Z" fill="#CEFF00"/>
<path d="M37.0566 16.7371H35.707V16.668H20.627V23.3346H30.0964C29.4328 25.1988 28.2273 26.8063 26.6724 27.9771L26.6749 27.9755L31.8607 32.3405C31.4938 32.6721 37.3825 28.3346 37.3825 20.0013C37.3825 18.8838 37.2669 17.793 37.0566 16.7371Z" fill="#1976D2"/>
</svg>
