<svg width="41" height="40" viewBox="0 0 41 40" fill="none" xmlns="http://www.w3.org/2000/svg">
<path d="M35.3456 30.8333C35.3456 33.135 33.4706 35 31.1567 35H9.37444C7.06133 35 5.18555 33.135 5.18555 30.8333V9.16667C5.18555 6.865 7.06133 5 9.37444 5H31.1567C33.4706 5 35.3456 6.865 35.3456 9.16667V30.8333Z" fill="#1976D2"/>
<path d="M30.2668 15.0355C30.3053 14.9096 30.3238 14.793 30.3187 14.6888C30.3062 14.3871 30.0976 14.168 29.6066 14.168H27.4133C26.8595 14.168 26.604 14.5013 26.4549 14.8355C26.4549 14.8355 25.0876 17.6346 23.5118 19.4805C23.0007 20.0146 22.741 20.0013 22.4646 20.0013C22.3163 20.0013 21.9418 19.823 21.9418 19.3338V15.013C21.9418 14.4346 21.7968 14.168 21.3285 14.168H17.4337C17.0927 14.168 16.9151 14.4346 16.9151 14.7021C16.9151 15.258 17.6674 15.3913 17.7529 16.9488V19.968C17.7529 20.7013 17.6247 20.8346 17.3482 20.8346C16.6026 20.8346 15.1348 18.3346 14.1521 15.058C13.9393 14.413 13.7265 14.168 13.1728 14.168H10.9585C10.3193 14.168 10.2129 14.4796 10.2129 14.813C10.2129 15.4138 10.7156 18.6621 13.4593 22.3971C15.449 25.1055 18.0704 26.668 20.3911 26.668C21.7969 26.668 21.9409 26.3121 21.9409 25.7563V23.2796C21.9418 22.6121 22.0951 22.5013 22.5425 22.5013C22.8617 22.5013 23.5126 22.7096 24.7693 24.168C26.2186 25.8496 26.4817 26.668 27.3128 26.668H29.5061C30.0155 26.668 30.3078 26.4555 30.3196 26.043C30.3221 25.938 30.307 25.8205 30.2727 25.6896C30.1101 25.2096 29.3645 24.0363 28.4346 22.918C27.9193 22.2988 27.4108 21.6855 27.1771 21.3521C27.0204 21.1346 26.9609 20.9813 26.9685 20.8346C26.976 20.6805 27.0564 20.5338 27.1771 20.3288C27.1553 20.3288 29.9903 16.3696 30.2668 15.0355Z" fill="white"/>
</svg>
